<svg xmlns="http://www.w3.org/2000/svg" viewBox="0 0 64 64" id="robotics"><g data-name="Layer 8"><path fill="#999" d="M20,36H44a2,2,0,0,1,2,2V48a0,0,0,0,1,0,0H18a0,0,0,0,1,0,0V38A2,2,0,0,1,20,36Z"></path><path fill="#b3b3b3" d="M41,36H20a2,2,0,0,0-2,2V48H43V38A2,2,0,0,0,41,36Z"></path><circle cx="24" cy="42" r="2" fill="#c1272d"></circle><circle cx="40" cy="42" r="2" fill="#c1272d"></circle><rect width="20" height="12" x="22" y="20" fill="#999"></rect><rect width="17" height="12" x="22" y="20" fill="#b3b3b3"></rect><circle cx="28" cy="26" r="2" fill="#80d4f7"></circle><path fill="#911d22" d="M32,16h0a2,2,0,0,1,2,2v2a0,0,0,0,1,0,0H30a0,0,0,0,1,0,0V18A2,2,0,0,1,32,16Z"></path><path fill="#c1272d" d="M31,16.28A2,2,0,0,0,30,18v2h2V18A2,2,0,0,0,31,16.28Z"></path><rect width="4" height="8" x="42" y="22" fill="#4d4d4d"></rect><rect width="2" height="8" x="42" y="22" fill="#666"></rect><rect width="4" height="8" x="18" y="22" fill="#4d4d4d"></rect><rect width="2" height="8" x="18" y="22" fill="#666"></rect><rect width="6" height="4" x="21" y="54" fill="#999"></rect><rect width="3" height="4" x="21" y="54" fill="#b3b3b3"></rect><rect width="6" height="4" x="37" y="54" fill="#999"></rect><rect width="3" height="4" x="37" y="54" fill="#b3b3b3"></rect><rect width="10" height="4" x="35" y="58" fill="#666"></rect><rect width="7" height="4" x="35" y="58" fill="gray"></rect><rect width="10" height="4" x="19" y="58" fill="#666"></rect><rect width="7" height="4" x="19" y="58" fill="gray"></rect><path fill="#b9af44" d="M11,18V14l1-1a6.68,6.68,0,0,0,2-4.73h0a6.65,6.65,0,0,0-1.34-4h0A5.52,5.52,0,0,0,8.23,2H7.77A5.52,5.52,0,0,0,3.34,4.22h0A6.65,6.65,0,0,0,2,8.23H2A6.68,6.68,0,0,0,4,13l1,1v4Z"></path><path fill="#f7e95a" d="M8,13a6.68,6.68,0,0,0,2-4.73,6.65,6.65,0,0,0-1.34-4A5.47,5.47,0,0,0,6,2.3,5.47,5.47,0,0,0,3.34,4.22,6.68,6.68,0,0,0,4,13l1,1v4H7V14Z"></path><path fill="#b9af44" d="M59,18V14l1-1a6.68,6.68,0,0,0,2-4.73h0a6.65,6.65,0,0,0-1.34-4h0A5.52,5.52,0,0,0,56.23,2h-.46a5.52,5.52,0,0,0-4.43,2.22h0a6.65,6.65,0,0,0-1.34,4h0A6.68,6.68,0,0,0,52,13l1,1v4Z"></path><path fill="#f7e95a" d="M56,13a6.68,6.68,0,0,0,.62-8.74A5.47,5.47,0,0,0,54,2.3a5.47,5.47,0,0,0-2.66,1.92A6.68,6.68,0,0,0,52,13l1,1v4h2V14Z"></path><rect width="6" height="4" x="5" y="14" fill="#534741"></rect><rect width="3" height="4" x="5" y="14" fill="#736357"></rect><rect width="6" height="4" x="53" y="14" fill="#534741"></rect><rect width="3" height="4" x="53" y="14" fill="#736357"></rect><rect width="10" height="4" x="19" y="58" fill="none" stroke="#000" stroke-linejoin="round" stroke-width="2"></rect><rect width="10" height="4" x="35" y="58" fill="none" stroke="#000" stroke-linejoin="round" stroke-width="2"></rect><rect width="6" height="4" x="21" y="54" fill="none" stroke="#000" stroke-linejoin="round" stroke-width="2"></rect><rect width="6" height="4" x="37" y="54" fill="none" stroke="#000" stroke-linejoin="round" stroke-width="2"></rect><path fill="none" stroke="#000" stroke-linejoin="round" stroke-width="2" d="M20,36H44a2,2,0,0,1,2,2V48a0,0,0,0,1,0,0H18a0,0,0,0,1,0,0V38A2,2,0,0,1,20,36Z"></path><line x1="24" x2="24" y1="48" y2="54" fill="none" stroke="#000" stroke-linejoin="round" stroke-width="2"></line><line x1="40" x2="40" y1="48" y2="54" fill="none" stroke="#000" stroke-linejoin="round" stroke-width="2"></line><line x1="24" x2="24" y1="36" y2="32" fill="none" stroke="#000" stroke-linejoin="round" stroke-width="2"></line><line x1="40" x2="40" y1="36" y2="32" fill="none" stroke="#000" stroke-linejoin="round" stroke-width="2"></line><rect width="20" height="12" x="22" y="20" fill="none" stroke="#000" stroke-linejoin="round" stroke-width="2"></rect><rect width="4" height="8" x="18" y="22" fill="none" stroke="#000" stroke-linejoin="round" stroke-width="2"></rect><rect width="4" height="8" x="42" y="22" fill="none" stroke="#000" stroke-linejoin="round" stroke-width="2"></rect><circle cx="24" cy="42" r="2" fill="none" stroke="#000" stroke-linejoin="round" stroke-width="2"></circle><circle cx="28" cy="26" r="2" fill="none" stroke="#000" stroke-linejoin="round" stroke-width="2"></circle><circle cx="36" cy="26" r="2" fill="#80d4f7"></circle><circle cx="36" cy="26" r="2" fill="none" stroke="#000" stroke-linejoin="round" stroke-width="2"></circle><circle cx="40" cy="42" r="2" fill="none" stroke="#000" stroke-linejoin="round" stroke-width="2"></circle><line x1="30" x2="34" y1="42" y2="42" fill="none" stroke="#000" stroke-linejoin="round" stroke-width="2"></line><path fill="none" stroke="#000" stroke-linejoin="round" stroke-width="2" d="M32 16h0a2 2 0 0 1 2 2v2a0 0 0 0 1 0 0H30a0 0 0 0 1 0 0V18A2 2 0 0 1 32 16zM53 18V14l-1-1a6.68 6.68 0 0 1-2-4.73h0a6.65 6.65 0 0 1 1.34-4h0A5.52 5.52 0 0 1 55.77 2h.46a5.52 5.52 0 0 1 4.43 2.22h0a6.65 6.65 0 0 1 1.34 4h0A6.68 6.68 0 0 1 60 13l-1 1v4z"></path><line x1="53" x2="59" y1="14" y2="14" fill="none" stroke="#000" stroke-linejoin="round" stroke-width="2"></line><line x1="56" x2="56" y1="14" y2="9" fill="none" stroke="#000" stroke-linejoin="round" stroke-width="2"></line><line x1="47" x2="42" y1="10" y2="10" fill="none" stroke="#000" stroke-linejoin="round" stroke-width="2"></line><line x1="47" x2="43" y1="13" y2="17" fill="none" stroke="#000" stroke-linejoin="round" stroke-width="2"></line><line x1="43" x2="47" y1="3" y2="7" fill="none" stroke="#000" stroke-linejoin="round" stroke-width="2"></line><path fill="none" stroke="#000" stroke-linejoin="round" stroke-width="2" d="M11,18V14l1-1a6.68,6.68,0,0,0,2-4.73h0a6.65,6.65,0,0,0-1.34-4h0A5.52,5.52,0,0,0,8.23,2H7.77A5.52,5.52,0,0,0,3.34,4.22h0A6.65,6.65,0,0,0,2,8.23H2A6.68,6.68,0,0,0,4,13l1,1v4Z"></path><line x1="11" x2="5" y1="14" y2="14" fill="none" stroke="#000" stroke-linejoin="round" stroke-width="2"></line><line x1="8" x2="8" y1="14" y2="9" fill="none" stroke="#000" stroke-linejoin="round" stroke-width="2"></line><line x1="17" x2="22" y1="10" y2="10" fill="none" stroke="#000" stroke-linejoin="round" stroke-width="2"></line><line x1="17" x2="21" y1="13" y2="17" fill="none" stroke="#000" stroke-linejoin="round" stroke-width="2"></line><line x1="21" x2="17" y1="3" y2="7" fill="none" stroke="#000" stroke-linejoin="round" stroke-width="2"></line><path fill="none" stroke="#000" stroke-linejoin="round" stroke-width="2" d="M46,38h3a3,3,0,0,1,3,3v4"></path><polyline fill="none" stroke="#000" stroke-linejoin="round" stroke-width="2" points="54 49 54 45 50 45 50 49"></polyline><path fill="none" stroke="#000" stroke-linejoin="round" stroke-width="2" d="M18,38H15a3,3,0,0,0-3,3v4"></path><polyline fill="none" stroke="#000" stroke-linejoin="round" stroke-width="2" points="10 49 10 45 14 45 14 49"></polyline></g></svg>