<svg id="visual" viewBox="0 0 960 540" width="960" height="540" xmlns="http://www.w3.org/2000/svg" xmlns:xlink="http://www.w3.org/1999/xlink" version="1.1"><rect x="0" y="0" width="960" height="540" fill="#001220"></rect><defs><linearGradient id="grad1_0" x1="43.8%" y1="0%" x2="100%" y2="100%"><stop offset="14.444444444444446%" stop-color="#001220" stop-opacity="1"></stop><stop offset="85.55555555555554%" stop-color="#001220" stop-opacity="1"></stop></linearGradient></defs><defs><linearGradient id="grad2_0" x1="0%" y1="0%" x2="56.3%" y2="100%"><stop offset="14.444444444444446%" stop-color="#001220" stop-opacity="1"></stop><stop offset="85.55555555555554%" stop-color="#001220" stop-opacity="1"></stop></linearGradient></defs><g transform="translate(960, 0)"><path d="M0 270C-17.5 254.9 -35.1 239.9 -53.2 233C-71.3 226.2 -89.9 227.5 -106.3 220.7C-122.7 214 -136.7 199.1 -147.8 185.3C-158.8 171.5 -166.8 158.8 -187.6 149.6C-208.4 140.4 -242 134.8 -243.3 117.1C-244.5 99.5 -213.5 70 -212.5 48.5C-211.6 27 -240.8 13.5 -270 0L0 0Z" fill="#2300ff"></path></g><g transform="translate(0, 540)"><path d="M0 -270C18.1 -256.5 36.2 -242.9 53.6 -235C71 -227 87.7 -224.6 107.2 -222.5C126.6 -220.5 148.9 -218.8 167.1 -209.5C185.3 -200.2 199.6 -183.3 205.6 -164C211.7 -144.6 209.6 -122.8 219.8 -105.9C230.1 -88.9 252.8 -76.9 263.2 -60.1C273.7 -43.3 271.8 -21.6 270 0L0 0Z" fill="#2300ff"></path></g></svg>