<svg xmlns="http://www.w3.org/2000/svg" viewBox="0 0 512 512" id="financial-filter"><path fill="#9bc9ff" fill-rule="evenodd" d="M281.949 450.754c-1.594-13.144-13.548-17.916-25.235-19.834-6.949-1.141-16.112-3.742-16.522-12.204-.339-6.993 5.2-11.544 11.481-12.957 8.547-1.924 17.413 1.615 20.925 9.974a4.004 4.004 0 0 0 5.236 2.141c2.024-.849 2.991-3.206 2.139-5.23-3.147-7.483-9.076-12.568-16.942-14.53l-3.032-.756v-5.835a3.995 3.995 0 0 0-4-4.001c-2.212 0-4 1.789-4 4.001v5.884l-2.995.777c-9.865 2.56-17.312 10.384-16.798 20.922.619 12.666 12.098 17.887 23.209 19.709 4.944.811 11.165 2.331 14.986 5.795 2.21 2.004 3.258 4.195 3.612 7.11.339 2.797-.268 5.346-2.127 7.491-3.448 3.98-10.015 5.633-15.083 5.749-8.241.189-16.863-3.619-19.025-12.281-.532-2.131-2.71-3.447-4.843-2.917a4.008 4.008 0 0 0-2.914 4.851c2.305 9.234 9.755 15.454 18.874 17.549l3.104.713v5.835a4 4 0 1 0 8 0v-5.786l3.212-.645c5.401-1.085 11.061-3.596 14.725-7.834 3.34-3.861 4.625-8.642 4.013-13.691zm38.943-15.643c0 35.784-29.11 64.891-64.893 64.891-35.781 0-64.888-29.11-64.888-64.891 0-35.776 29.113-64.889 64.888-64.889 35.777 0 64.893 29.111 64.893 64.889zm46.537-109.759h14.96c2.212 0 4-1.789 4-4.001V219.482h48.973v101.869a3.992 3.992 0 0 0 3.995 4.001h14.963l-43.44 49.955-43.451-49.955zm-241.816-4a3.992 3.992 0 0 0 3.995 4.001h14.958l-43.435 49.955-43.451-49.956h14.96c2.212 0 4-1.789 4-4.001V219.482h48.973v101.87zM90.971 82.512v-31.1h330.061v31.101H90.971v-.001zm130.782-44.119c4.092-15.501 18.175-26.39 34.246-26.39 16.056 0 30.153 10.869 34.25 26.39l1.326 5.021h-71.147l1.325-5.021zm140.367-26.39c16.05 0 30.155 10.873 34.242 26.393l1.322 5.018h-71.129l1.32-5.017c4.08-15.525 18.193-26.394 34.245-26.394zM185.451 43.414H114.32l1.322-5.018c4.087-15.52 18.192-26.393 34.242-26.393 16.052 0 30.159 10.87 34.246 26.393l1.321 5.018z" clip-rule="evenodd"></path><path fill="#57a4ff" fill-rule="evenodd" d="M101.131 369.212 66.46 329.353h6.179c4.42 0 8-3.58 8-8.001v-97.869h40.973v97.869a7.995 7.995 0 0 0 7.995 8.001h6.18l-34.656 39.859zm52.209-55.859h-15.732v-97.871a7.998 7.998 0 0 0-8-8.001H72.64c-4.42 0-8 3.58-8 8.001v97.871H48.908a8 8 0 0 0-7.278 4.678c-1.297 2.86-.821 6.212 1.24 8.57l52.219 60.06a8.037 8.037 0 0 0 6.043 2.751 8.012 8.012 0 0 0 6.028-2.751l52.223-60.06a7.996 7.996 0 0 0 1.236-8.57 7.989 7.989 0 0 0-7.279-4.678zm257.54 55.859-34.671-39.859h6.18c4.42 0 8-3.58 8-8.001v-97.869h40.973v97.869a7.995 7.995 0 0 0 7.995 8.001h6.184l-34.661 39.859zm59.488-51.181a7.989 7.989 0 0 0-7.279-4.678h-15.727v-97.871a8 8 0 0 0-8.005-8.001h-56.968c-4.42 0-8 3.58-8 8.001v97.871h-15.727a8.002 8.002 0 0 0-7.283 4.678c-1.297 2.86-.821 6.212 1.241 8.57l52.223 60.06a8.019 8.019 0 0 0 6.038 2.751 8.012 8.012 0 0 0 6.028-2.751l52.223-60.06a7.995 7.995 0 0 0 1.236-8.57zM417.032 55.412v23.101H94.971V55.412h322.061zM149.883 16.003c14.557 0 26.836 9.958 30.378 23.411h-60.752c3.543-13.454 15.821-23.411 30.374-23.411zm106.116 0c14.562 0 26.831 9.958 30.383 23.411h-60.761c3.551-13.454 15.821-23.411 30.378-23.411zm106.121 0c14.552 0 26.831 9.958 30.374 23.411h-60.752c3.537-13.454 15.821-23.411 30.378-23.411zm-74.87 216.47 129.782-128.191v-9.77H94.971v9.77l129.777 128.191a8.021 8.021 0 0 1 2.382 5.699v101.221l57.742-24.341v-76.88c0-2.139.859-4.19 2.378-5.699zm-76.12 9.04v109.929c0 2.681 1.34 5.18 3.58 6.661a7.933 7.933 0 0 0 4.42 1.34c1.052 0 2.108-.21 3.109-.63l73.743-31.08a8.01 8.01 0 0 0 4.892-7.37v-78.849l129.777-128.2a8.006 8.006 0 0 0 2.382-5.69V47.411c0-4.41-3.58-7.997-8-7.997h-16.189C405.032 17.074 385.532.003 362.121.003c-23.421 0-42.912 17.071-46.728 39.411h-12.661C298.911 17.074 279.42.003 255.999.003c-23.416 0-42.907 17.071-46.728 39.411H196.61C192.789 17.074 173.298.003 149.882.003c-23.411 0-42.911 17.071-46.723 39.411H86.97c-4.42 0-8 3.588-8 7.997v60.211c0 2.139.859 4.19 2.377 5.69L211.13 241.513zm74.79 208.759c.769 6.341-.948 12.15-4.958 16.79-3.91 4.52-9.991 7.739-16.963 9.139v2.51a8.002 8.002 0 0 1-8 8.001c-4.42 0-8-3.59-8-8.001v-2.65c-10.92-2.51-19.26-10.07-21.859-20.479a8 8 0 0 1 5.83-9.702c4.279-1.059 8.623 1.541 9.689 5.83 1.764 7.05 9.203 9.381 15.052 9.25 5.109-.12 9.991-1.88 12.151-4.369.698-.811 1.458-2.04 1.179-4.391-.264-2.12-.858-7.079-15.274-9.44-22.298-3.66-26.208-16.27-26.557-23.461-.58-11.83 7.34-21.759 19.788-24.989v-2.79a8 8 0 0 1 8-8.001c4.425 0 8 3.581 8 8.001v2.71c8.052 2.008 15.632 7.279 19.661 16.86 1.712 4.068-.208 8.76-4.279 10.47a7.993 7.993 0 0 1-10.472-4.28c-3.429-8.161-11.901-8.62-16.359-7.621-1.453.332-8.68 2.311-8.364 8.861.085 1.73.316 6.341 13.175 8.45 17.422 2.862 27.031 10.703 28.56 23.302zm-29.921 45.731c33.572 0 60.893-27.311 60.893-60.891 0-33.569-27.321-60.889-60.893-60.889-33.567 0-60.888 27.321-60.888 60.889-.001 33.579 27.321 60.891 60.888 60.891zm0-137.781c42.402 0 76.889 34.5 76.889 76.889 0 42.401-34.487 76.891-76.889 76.891-42.397 0-76.889-34.49-76.889-76.891 0-42.389 34.491-76.889 76.889-76.889z" clip-rule="evenodd"></path></svg>