<?xml version="1.0" encoding="utf-8"?>
<!-- Generator: Adobe Illustrator 27.5.0, SVG Export Plug-In . SVG Version: 6.00 Build 0)  -->
<svg version="1.1" xmlns="http://www.w3.org/2000/svg" xmlns:xlink="http://www.w3.org/1999/xlink" x="0px" y="0px"
	 viewBox="0 0 3710 3710" style="enable-background:new 0 0 3710 3710;" xml:space="preserve">
<g id="Background">
	<g>
		<g>
			<rect style="fill:#2d283e;" width="3710" height="3710"/>
		</g>
	</g>
</g>
<g id="Illustration">
	<g>
		<linearGradient id="SVGID_1_" gradientUnits="userSpaceOnUse" x1="3547.584" y1="3997.8743" x2="1113.5026" y2="974.8978">
			<stop  offset="0" style="stop-color:#DAE3FE"/>
			<stop  offset="1" style="stop-color:#E9EFFD"/>
		</linearGradient>
		<path style="fill:url(#SVGID_1_);" d="M2877.953,2805.722c-55.91,58.859-108.811,96.817-150.608,126.807
			c-491.308,352.519-1072.656,249.762-1196.209,224.667c-182.449-37.056-535.118-108.685-790.092-408.529
			c-385.754-453.639-325.686-1168.334-26.47-1640.114c54.731-86.297,343.839-565.263,931.448-642.074
			c355.615-46.485,770.148,47.27,1070.341,298.772C3346.496,1293.176,3301.637,2359.68,2877.953,2805.722z"/>
		<g>
			<g>
				
					<ellipse transform="matrix(0.7071 -0.7071 0.7071 0.7071 -350.12 1868.403)" style="fill:#BDD0FB;" cx="2080.302" cy="1356.834" rx="601.918" ry="601.918"/>
				<g>
					
						<linearGradient id="SVGID_00000181805248537713188360000015431026903219545750_" gradientUnits="userSpaceOnUse" x1="2527.8416" y1="762.6526" x2="1371.1527" y2="2298.3442">
						<stop  offset="0" style="stop-color:#4F52FF"/>
						<stop  offset="1" style="stop-color:#4042E2"/>
					</linearGradient>
					
						<circle style="fill:url(#SVGID_00000181805248537713188360000015431026903219545750_);" cx="2080.302" cy="1356.834" r="513.714"/>
					<path style="fill:#FFFFFF;" d="M2080.301,1896.278c-297.448,0-539.442-241.992-539.442-539.445
						s241.994-539.445,539.442-539.445s539.443,241.992,539.443,539.445S2377.75,1896.278,2080.301,1896.278z M2080.301,843.12
						c-283.262,0-513.711,230.449-513.711,513.713c0,283.265,230.449,513.714,513.711,513.714
						c283.263,0,513.711-230.449,513.711-513.714C2594.012,1073.569,2363.564,843.12,2080.301,843.12z"/>
				</g>
				<g>
					
						<linearGradient id="SVGID_00000146474109131854193300000009343309904320459684_" gradientUnits="userSpaceOnUse" x1="2527.8413" y1="762.6526" x2="1371.1544" y2="2298.3416">
						<stop  offset="0" style="stop-color:#4F52FF"/>
						<stop  offset="1" style="stop-color:#4042E2"/>
					</linearGradient>
					
						<circle style="fill:url(#SVGID_00000146474109131854193300000009343309904320459684_);" cx="2080.302" cy="1356.834" r="313.184"/>
					<path style="fill:#FFFFFF;" d="M2080.301,1695.75c-186.877,0-338.914-152.039-338.914-338.917
						c0-186.878,152.036-338.912,338.914-338.912c186.878,0,338.914,152.034,338.914,338.912
						C2419.215,1543.711,2267.179,1695.75,2080.301,1695.75z M2080.301,1069.381c-158.503,0-287.454,128.95-287.454,287.453
						s128.952,287.457,287.454,287.457c158.503,0,287.455-128.954,287.455-287.457S2238.804,1069.381,2080.301,1069.381z"/>
				</g>
				<g>
					
						<linearGradient id="SVGID_00000048499630864151568090000005790010671288405423_" gradientUnits="userSpaceOnUse" x1="2527.8411" y1="762.6529" x2="1371.1553" y2="2298.3403">
						<stop  offset="0" style="stop-color:#4F52FF"/>
						<stop  offset="1" style="stop-color:#4042E2"/>
					</linearGradient>
					
						<circle style="fill:url(#SVGID_00000048499630864151568090000005790010671288405423_);" cx="2080.302" cy="1356.834" r="121.337"/>
					<path style="fill:#FFFFFF;" d="M2080.301,1503.901c-81.092,0-147.066-65.973-147.066-147.068s65.974-147.068,147.066-147.068
						c81.093,0,147.068,65.973,147.068,147.068S2161.394,1503.901,2080.301,1503.901z M2080.301,1261.224
						c-52.718,0-95.606,42.889-95.606,95.609c0,52.72,42.889,95.609,95.606,95.609c52.718,0,95.609-42.889,95.609-95.609
						C2175.91,1304.113,2133.019,1261.224,2080.301,1261.224z"/>
				</g>
			</g>
			<g>
				
					<linearGradient id="SVGID_00000111899055738173696330000001425097641683218841_" gradientUnits="userSpaceOnUse" x1="161.1249" y1="4544.8584" x2="-22.4129" y2="5290.478" gradientTransform="matrix(-0.7071 -0.7071 0.7071 -0.7071 -1192.2574 4633.1733)">
					<stop  offset="0" style="stop-color:#09005D"/>
					<stop  offset="1" style="stop-color:#1A0F91"/>
				</linearGradient>
				<polygon style="fill:url(#SVGID_00000111899055738173696330000001425097641683218841_);" points="2810.002,625.242 
					2826.225,641.464 2211.924,1255.765 2195.701,1239.543 				"/>
				
					<linearGradient id="SVGID_00000050639982074001919610000016230342485454101134_" gradientUnits="userSpaceOnUse" x1="6685.9976" y1="-28284.3594" x2="6628.4629" y2="-28000.0723" gradientTransform="matrix(-0.7071 -0.7071 0.7071 -0.7071 -1192.2574 4633.1733)">
					<stop  offset="0" style="stop-color:#FF928E"/>
					<stop  offset="1" style="stop-color:#FE7062"/>
				</linearGradient>
				<path style="fill:url(#SVGID_00000050639982074001919610000016230342485454101134_);" d="M2207.191,1200.4
					c9.307-9.307,53.182,34.568,43.875,43.875l-162.731,127.932c-6.012,4.726-13.802-3.064-9.076-9.077L2207.191,1200.4z"/>
				
					<linearGradient id="SVGID_00000089557551903975652660000018412871509579931820_" gradientUnits="userSpaceOnUse" x1="6801.9053" y1="-28260.8965" x2="6744.3711" y2="-27976.6094" gradientTransform="matrix(-0.7071 -0.7071 0.7071 -0.7071 -1192.2574 4633.1733)">
					<stop  offset="0" style="stop-color:#FF928E"/>
					<stop  offset="1" style="stop-color:#FE7062"/>
				</linearGradient>
				<path style="fill:url(#SVGID_00000089557551903975652660000018412871509579931820_);" d="M2825.875,641.815l82.642,8.214
					l-113.452,113.453c-37.172,37.171-89.057,55.71-141.368,50.51l0,0L2825.875,641.815z"/>
				
					<linearGradient id="SVGID_00000168096943370923527450000002144712413179098039_" gradientUnits="userSpaceOnUse" x1="7858.9727" y1="-29987.2988" x2="7801.4385" y2="-29703.0098" gradientTransform="matrix(0.7071 0.7071 0.7071 -0.7071 -1682.106 4143.3247)">
					<stop  offset="0" style="stop-color:#FF928E"/>
					<stop  offset="1" style="stop-color:#FE7062"/>
				</linearGradient>
				<path style="fill:url(#SVGID_00000168096943370923527450000002144712413179098039_);" d="M2809.652,625.593l-8.214-82.643
					l-113.452,113.452c-37.172,37.172-55.71,89.056-50.511,141.367l0,0L2809.652,625.593z"/>
			</g>
		</g>
		<g>
			<g>
				<g style="opacity:0.3;">
					<path style="fill:#91B3FA;" d="M1187.485,766.752c-3.776,4.03-10.104,4.232-14.13,0.457
						c-7.826-7.335-16.085-14.44-24.553-21.116c-4.284-3.378-5.058-9.556-1.777-13.884c0.039-0.051,0.078-0.103,0.118-0.156
						c3.418-4.335,9.704-5.076,14.04-1.657c8.911,7.028,17.608,14.506,25.845,22.229c3.767,3.53,4.188,9.295,1.136,13.321
						C1187.954,766.223,1187.729,766.494,1187.485,766.752z M1105.364,716.422c-9.293-5.458-18.907-10.569-28.585-15.197
						c-4.977-2.38-7.087-8.348-4.707-13.329c2.407-4.991,8.352-7.086,13.333-4.705c10.181,4.867,20.302,10.248,30.082,15.988
						c4.76,2.796,6.353,8.923,3.557,13.683c-0.203,0.346-0.424,0.675-0.66,0.987C1115.365,717.83,1109.778,719.014,1105.364,716.422
						z M1027.882,681.901c-10.247-3.243-20.758-6.08-31.249-8.431c-5.386-1.207-8.775-6.555-7.568-11.941
						c1.212-5.38,6.552-8.772,11.941-7.568c11.048,2.477,22.12,5.464,32.908,8.88c5.263,1.666,8.178,7.284,6.515,12.547
						c-0.356,1.122-0.89,2.137-1.563,3.024C1036.385,681.686,1032.023,683.212,1027.882,681.901z M944.626,665.576
						c-10.726-0.873-21.613-1.287-32.361-1.238c-5.521,0.024-10.017-4.431-10.042-9.951c-0.019-5.52,4.435-10.012,9.951-10.042
						c11.318-0.05,22.78,0.388,34.068,1.302c5.501,0.447,9.601,5.27,9.154,10.772c-0.16,1.969-0.879,3.758-1.99,5.224
						C951.41,664.274,948.159,665.861,944.626,665.576z M859.808,668.206c-10.625,1.528-21.338,3.533-31.833,5.963
						c-5.381,1.242-10.748-2.11-11.993-7.487c-1.246-5.382,2.108-10.75,7.488-11.99c11.042-2.556,22.314-4.665,33.494-6.273
						c5.463-0.787,10.53,3.005,11.316,8.471c0.397,2.753-0.37,5.406-1.928,7.461C864.818,666.375,862.519,667.817,859.808,668.206z
						 M777.686,689.538c-10.04,3.845-20.036,8.17-29.718,12.854c-4.969,2.404-10.949,0.325-13.351-4.642
						c-2.406-4.97-0.33-10.947,4.641-13.354c10.187-4.931,20.713-9.482,31.278-13.529c5.156-1.973,10.934,0.604,12.91,5.76
						c1.283,3.349,0.643,6.96-1.376,9.622C780.982,687.686,779.494,688.846,777.686,689.538z M531.636,967.468
						c-5.384-1.216-8.765-6.567-7.548-11.953c2.493-11.031,5.503-22.104,8.945-32.906c1.676-5.261,7.299-8.167,12.559-6.489
						c5.258,1.673,8.163,7.297,6.488,12.556c-3.268,10.257-6.124,20.771-8.49,31.246c-0.325,1.437-0.943,2.73-1.779,3.833
						C539.516,966.783,535.584,968.362,531.636,967.468z M702.381,728.519c-8.928,5.978-17.705,12.417-26.086,19.141
						c-4.309,3.453-10.601,2.762-14.054-1.544c-3.456-4.309-2.744-10.58,1.545-14.053c8.827-7.079,18.07-13.86,27.472-20.155
						c4.587-3.071,10.795-1.843,13.868,2.745c2.436,3.638,2.167,8.297-0.338,11.602
						C704.136,727.115,703.329,727.883,702.381,728.519z M558.164,884.485c-4.975-2.39-7.07-8.364-4.679-13.34
						c4.899-10.191,10.304-20.306,16.057-30.066c2.786-4.773,8.933-6.335,13.689-3.533c4.754,2.804,6.336,8.932,3.533,13.689
						c-5.469,9.275-10.605,18.887-15.259,28.573c-0.297,0.618-0.652,1.189-1.05,1.715
						C567.642,885.232,562.52,886.58,558.164,884.485z M637.689,783.341c-7.361,7.821-14.48,16.062-21.161,24.499
						c-3.426,4.331-9.712,5.06-14.042,1.633c-4.271-3.383-5.039-9.551-1.762-13.872c0.043-0.056,0.086-0.114,0.132-0.167
						c7.03-8.885,14.525-17.562,22.271-25.794c3.787-4.018,10.112-4.211,14.133-0.428c3.755,3.533,4.169,9.288,1.121,13.308
						C638.167,782.802,637.934,783.076,637.689,783.341z"/>
					<path style="fill:#91B3FA;" d="M532.601,1033.339c1.189-1.568,1.931-3.503,2.017-5.62c0.21-5.15,0.534-10.38,0.955-15.549
						c0.451-5.501-3.645-10.329-9.146-10.778c-5.502-0.453-10.336,3.642-10.777,9.148c-0.447,5.436-0.785,10.937-1.008,16.356
						c-0.227,5.515,4.062,10.173,9.575,10.398C527.618,1037.436,530.69,1035.859,532.601,1033.339z"/>
				</g>
				<g style="opacity:0.3;">
					<path style="fill:#91B3FA;" d="M639.992,1318.545c2.915-3.844,2.692-9.342-0.749-12.94c-3.562-3.723-7.108-7.584-10.533-11.474
						c-3.65-4.144-9.966-4.545-14.109-0.897c-4.16,3.664-4.543,9.967-0.896,14.109c3.608,4.095,7.34,8.162,11.09,12.083
						c3.816,3.989,10.144,4.129,14.134,0.313C639.322,1319.364,639.675,1318.963,639.992,1318.545z"/>
					<path style="fill:#91B3FA;" d="M1219.247,1300.552c-3.546,4.231-9.852,4.786-14.084,1.236
						c-4.229-3.547-4.779-9.841-1.236-14.081c6.753-8.054,13.266-16.522,19.44-25.26c3.155-4.498,9.425-5.58,13.933-2.395
						c4.509,3.185,5.581,9.423,2.397,13.933c-2.675,3.786-5.402,7.513-8.18,11.178
						C1227.552,1290.392,1223.425,1295.571,1219.247,1300.552z M1254.561,1231.722c-4.896-2.545-6.803-8.58-4.256-13.477
						c4.886-9.405,9.431-19.116,13.502-28.867c2.109-5.095,7.98-7.501,13.076-5.375c5.092,2.126,7.498,7.981,5.371,13.074
						c-4.285,10.267-9.068,20.492-14.213,30.386c-0.267,0.513-0.572,0.995-0.91,1.439
						C1264.242,1232.712,1258.947,1234.002,1254.561,1231.722z M1181.475,1339.798c-8.243,7.466-16.918,14.682-25.788,21.444
						c-4.39,3.347-10.663,2.502-14.012-1.889c-3.346-4.389-2.496-10.656,1.89-14.01c8.425-6.421,16.662-13.271,24.488-20.362
						c4.093-3.705,10.413-3.394,14.122,0.699c3.278,3.62,3.41,8.984,0.562,12.74
						C1182.366,1338.908,1181.946,1339.372,1181.475,1339.798z M1287.531,1152.585c-5.337-1.407-8.525-6.878-7.115-12.214
						c2.7-10.232,4.993-20.702,6.819-31.117c0.951-5.443,6.13-9.074,11.571-8.12c5.437,0.952,9.072,6.131,8.12,11.568
						c-1.922,10.969-4.338,21.995-7.18,32.769c-0.345,1.302-0.927,2.477-1.694,3.488
						C1295.678,1152.09,1291.565,1153.649,1287.531,1152.585z M1110.235,1391.191c-9.677,5.467-19.724,10.595-29.863,15.243
						c-5.018,2.301-10.948,0.1-13.251-4.916c-2.304-5.02-0.1-10.953,4.918-13.254c9.63-4.417,19.174-9.287,28.363-14.479
						c4.808-2.715,10.906-1.019,13.621,3.788c2.023,3.582,1.597,7.879-0.739,10.96
						C1112.485,1389.587,1111.46,1390.5,1110.235,1391.191z M1029.452,1425.713c-10.664,3.227-21.588,6.04-32.469,8.365
						c-5.4,1.151-10.71-2.289-11.864-7.689c-1.154-5.407,2.289-10.716,7.689-11.862c10.338-2.209,20.72-4.883,30.854-7.948
						c5.284-1.599,10.864,1.389,12.463,6.673c0.962,3.184,0.259,6.476-1.608,8.939
						C1033.286,1423.816,1031.55,1425.079,1029.452,1425.713z M943.061,1441.812c-11.119,0.828-22.398,1.195-33.517,1.095
						c-5.522-0.051-9.953-4.567-9.905-10.087c0.05-5.528,4.569-9.955,10.087-9.904c10.568,0.099,21.281-0.253,31.85-1.041
						c5.505-0.41,10.301,3.721,10.71,9.225c0.189,2.53-0.579,4.906-2,6.78C948.613,1440.085,946.037,1441.589,943.061,1441.812z
						 M855.216,1438.681c-11.03-1.622-22.119-3.735-32.958-6.282c-5.374-1.262-8.709-6.642-7.446-12.017
						c1.26-5.365,6.644-8.705,12.018-7.443c10.29,2.417,20.818,4.423,31.297,5.964c5.461,0.804,9.237,5.881,8.433,11.342
						c-0.254,1.725-0.934,3.281-1.918,4.578C862.512,1437.634,858.956,1439.229,855.216,1438.681z M770.163,1416.312
						c-10.376-4.003-20.718-8.505-30.741-13.38c-4.965-2.415-7.034-8.398-4.618-13.362c2.409-4.948,8.394-7.032,13.36-4.618
						c9.522,4.632,19.345,8.906,29.2,12.711c5.149,1.986,7.713,7.774,5.725,12.923c-0.346,0.897-0.806,1.717-1.359,2.446
						C779.106,1416.492,774.416,1417.953,770.163,1416.312z M692.178,1375.855c-6.82-4.544-13.585-9.355-20.104-14.297
						c-2.362-1.79-4.694-3.6-7.004-5.433c-4.323-3.429-5.177-9.729-1.619-14.041c3.428-4.327,9.716-5.053,14.043-1.622
						c2.194,1.74,4.415,3.464,6.658,5.165c6.198,4.699,12.625,9.271,19.11,13.592c4.594,3.06,5.836,9.266,2.776,13.86
						c-0.116,0.172-0.234,0.342-0.358,0.505C702.513,1377.762,696.599,1378.802,692.178,1375.855z"/>
					<path style="fill:#91B3FA;" d="M1310.613,1063.929c1.201-1.584,1.942-3.537,2.021-5.671c0.195-5.408,0.28-10.923,0.251-16.391
						c-0.028-5.521-4.527-9.974-10.047-9.945c-5.521,0.031-9.974,4.521-9.944,10.047c0.026,5.194-0.055,10.432-0.239,15.567
						c-0.202,5.514,4.109,10.149,9.627,10.349C1305.664,1068.007,1308.714,1066.434,1310.613,1063.929z"/>
				</g>
				<g>
					<path style="fill:#91B3FA;" d="M1194.017,938.342c-0.47-1.938-2.116-3.363-4.101-3.551l-56.609-5.361
						c-11.972-23.703-27.81-45.666-47.278-64.843l12.162-55.508c0.426-1.947-0.43-3.95-2.131-4.988l-58.226-35.518
						c-1.701-1.039-3.875-0.883-5.41,0.387l-43.791,36.215c-25.96-8.535-52.737-12.568-79.291-12.367l-30.67-47.88
						c-1.076-1.678-3.097-2.49-5.034-2.02l-66.288,16.056c-1.937,0.469-3.364,2.116-3.551,4.101l-5.36,56.608
						c-23.703,11.971-45.667,27.809-64.844,47.279l-55.508-12.162c-1.947-0.427-3.951,0.428-4.988,2.13l-35.52,58.227
						c-1.038,1.702-0.881,3.874,0.388,5.41l36.215,43.791c-8.536,25.96-12.568,52.737-12.366,79.291l-47.881,30.67
						c-1.678,1.075-2.491,3.096-2.02,5.034l16.056,66.288c0.469,1.937,2.116,3.363,4.099,3.551l56.61,5.36
						c11.971,23.703,27.809,45.666,47.278,64.843l-12.162,55.508c-0.427,1.947,0.428,3.951,2.13,4.988l58.227,35.519
						c1.702,1.038,3.874,0.882,5.41-0.388l43.791-36.215c25.96,8.535,52.738,12.568,79.291,12.367l30.67,47.88
						c1.074,1.678,3.096,2.49,5.034,2.021l66.288-16.057c1.937-0.469,3.363-2.116,3.551-4.1l5.36-56.609
						c23.703-11.972,45.666-27.81,64.844-47.278l55.508,12.162c1.946,0.426,3.949-0.429,4.988-2.131l35.519-58.227
						c1.038-1.702,0.883-3.874-0.388-5.41l-36.214-43.79c8.536-25.96,12.567-52.737,12.366-79.291l47.881-30.67
						c1.678-1.075,2.49-3.097,2.021-5.034L1194.017,938.342z"/>
					<g>
						<path style="fill:#BDD0FB;" d="M959.003,1090.928c-26.988,26.471-70.477,26.054-96.952-0.935
							c-12.825-13.072-19.79-30.358-19.612-48.669c0.175-18.308,7.469-35.458,20.547-48.28
							c26.988-26.471,70.478-26.054,96.952,0.935c24.083,24.553,25.91,62.764,5.719,89.395
							C963.656,1086.013,961.435,1088.541,959.003,1090.928z M858.432,1041.479c-0.135,14.041,5.205,27.292,15.038,37.317
							c20.295,20.689,53.644,21.012,74.334,0.715c20.704-20.295,21.012-53.644,0.715-74.336
							c-20.295-20.689-53.644-21.012-74.334-0.715c-1.876,1.841-3.593,3.795-5.152,5.852
							C862.261,1019.243,858.543,1030.068,858.432,1041.479z"/>
					</g>
					<path style="fill:#BDD0FB;" d="M1043.717,1144.314c3.468-4.574,6.725-9.349,9.756-14.315l0,0
						c0.954-1.562,1.883-3.142,2.786-4.735c4.453-7.857,8.273-16.057,11.404-24.471c0.043-0.115,0.085-0.229,0.128-0.344
						c0.12-0.326,0.239-0.651,0.356-0.98c0.232-0.635,0.456-1.274,0.679-1.911c0.586-1.677-0.012-3.481-1.355-4.501
						c-0.327-0.248-0.698-0.449-1.105-0.591c-2.085-0.728-4.36,0.38-5.089,2.46c-3.74,10.73-8.663,21.127-14.631,30.905
						c-29.625,48.582-81.101,75.839-134.168,76.885c-29.516,0.586-59.525-6.941-86.542-23.424
						c-4.738-2.889-9.296-5.997-13.657-9.306c-29.357-22.263-49.993-53.683-58.782-89.974
						c-10.098-41.686-3.358-84.811,18.978-121.426c46.138-75.617,145.124-99.571,220.709-53.462
						c4.661,2.843,9.16,5.911,13.481,9.189c18.726,14.202,34.136,32.344,45.06,53.177c0.283,0.538,0.669,0.985,1.125,1.328
						c1.195,0.906,2.856,1.099,4.273,0.355c1.954-1.032,2.715-3.439,1.683-5.4c-11.47-21.872-27.647-40.921-47.306-55.831
						c-4.535-3.441-9.258-6.661-14.148-9.646c-79.358-48.411-183.31-23.207-231.703,56.122
						c-23.45,38.441-30.524,83.711-19.923,127.474c9.226,38.1,30.891,71.085,61.709,94.458c4.58,3.473,9.364,6.734,14.335,9.769
						c38.444,23.45,83.715,30.526,127.477,19.926C987.354,1196.818,1020.344,1175.142,1043.717,1144.314z"/>
				</g>
			</g>
			<g>
				<g style="opacity:0.3;">
					<path style="fill:#91B3FA;" d="M1604.162,653.271c1.614-2.128,1.712-5.141,0.041-7.399c-3.115-4.215-6.401-8.393-9.766-12.417
						c-2.187-2.615-6.077-2.962-8.696-0.775c-2.628,2.18-2.961,6.081-0.775,8.696c3.207,3.834,6.338,7.816,9.312,11.838
						c2.023,2.74,5.889,3.319,8.634,1.295C1603.398,654.149,1603.814,653.73,1604.162,653.271z"/>
					<path style="fill:#91B3FA;" d="M1572.137,618.32c-2.327,2.491-6.231,2.63-8.726,0.303
						c-6.296-5.867-12.965-11.479-19.822-16.677c-1.446-1.096-2.91-2.179-4.39-3.252c-2.756-2.003-3.371-5.862-1.369-8.623
						c1.997-2.534,5.863-3.371,8.627-1.37c1.547,1.124,3.078,2.258,4.591,3.405c7.187,5.449,14.18,11.334,20.781,17.488
						c2.337,2.176,2.604,5.746,0.714,8.239C1572.418,617.999,1572.281,618.16,1572.137,618.32z M1512.749,581.858
						c-9.128-5.055-18.649-9.592-28.301-13.478c-3.164-1.275-4.693-4.867-3.42-8.033c1.271-3.144,4.869-4.696,8.033-3.421
						c10.115,4.072,20.099,8.827,29.668,14.129c2.983,1.653,4.062,5.41,2.411,8.396c-0.145,0.26-0.311,0.51-0.488,0.742
						C1518.828,582.601,1515.467,583.363,1512.749,581.858z M1454.688,558.505c-10.072-2.662-20.417-4.716-30.754-6.111
						c-3.376-0.456-5.747-3.566-5.291-6.943c0.459-3.389,3.559-5.752,6.943-5.295c10.839,1.461,21.692,3.621,32.253,6.408
						c3.296,0.872,5.267,4.25,4.395,7.546c-0.215,0.802-0.576,1.528-1.049,2.152C1459.719,558.196,1457.18,559.161,1454.688,558.505
						z M1392.662,550.131c-10.433-0.11-20.972,0.427-31.304,1.601c-3.392,0.383-6.449-2.052-6.831-5.44
						c-0.381-3.379,2.049-6.444,5.436-6.831c10.843-1.229,21.885-1.792,32.83-1.678c3.409,0.035,6.145,2.832,6.11,6.241
						c-0.019,1.374-0.48,2.639-1.252,3.658C1396.509,549.189,1394.697,550.153,1392.662,550.131z M1330.472,557.154
						c-10.142,2.43-20.225,5.51-29.979,9.154c-3.19,1.194-6.748-0.429-7.943-3.623c-1.195-3.194,0.422-6.754,3.624-7.944
						c10.22-3.82,20.792-7.047,31.42-9.598c3.317-0.792,6.648,1.251,7.442,4.564c0.449,1.873-0.007,3.751-1.085,5.174
						C1333.118,555.978,1331.916,556.806,1330.472,557.154z M1271.871,579.06c-9.237,4.819-18.257,10.26-26.814,16.177
						c-2.802,1.939-6.65,1.237-8.588-1.566c-1.937-2.804-1.24-6.638,1.566-8.592c8.971-6.204,18.437-11.913,28.126-16.968
						c3.024-1.573,6.752-0.404,8.328,2.617c1.14,2.188,0.843,4.747-0.554,6.59C1273.401,578.022,1272.709,578.624,1271.871,579.06z
						 M1220.429,614.618c-7.748,6.916-15.164,14.413-22.041,22.285c-2.246,2.564-6.146,2.827-8.712,0.583
						c-2.568-2.241-2.794-6.105-0.588-8.715c7.214-8.248,14.989-16.108,23.115-23.363c2.545-2.27,6.448-2.049,8.72,0.494
						c1.997,2.236,2.065,5.53,0.316,7.836C1221.003,614.05,1220.734,614.346,1220.429,614.618z M1154.977,691.408
						c-3.037-1.553-4.237-5.27-2.683-8.307c4.298-8.404,9.132-16.716,14.349-24.685c0.786-1.216,1.588-2.413,2.396-3.608
						c1.822-2.862,5.754-3.559,8.578-1.634c2.822,1.916,3.552,5.753,1.638,8.577c-0.763,1.117-1.513,2.246-2.264,3.406
						c-4.996,7.626-9.607,15.555-13.707,23.568c-0.168,0.331-0.364,0.64-0.579,0.923
						C1160.929,691.99,1157.681,692.792,1154.977,691.408z"/>
				</g>
				<g style="opacity:0.3;">
					<path style="fill:#91B3FA;" d="M1599.973,968.489c-6.611,8.49-13.801,16.646-21.361,24.253
						c-2.405,2.414-6.313,2.428-8.733,0.022c-2.421-2.406-2.389-6.309-0.022-8.733c7.213-7.25,14.068-15.033,20.375-23.132
						c2.093-2.691,5.975-3.172,8.663-1.078c2.668,2.079,3.165,5.914,1.129,8.6C1600.007,968.444,1599.989,968.468,1599.973,968.489z
						 M1609.799,943.932c-2.92-1.757-3.864-5.551-2.105-8.471c5.287-8.789,10.096-17.986,14.29-27.34
						c1.396-3.089,5.048-4.503,8.163-3.102c3.112,1.395,4.498,5.044,3.106,8.158c-4.397,9.801-9.435,19.441-14.979,28.649
						c-0.117,0.195-0.24,0.377-0.375,0.555C1616.019,944.86,1612.532,945.576,1609.799,943.932z M1554.441,1014.234
						c-8.472,6.643-17.42,12.827-26.598,18.376c-2.918,1.763-6.717,0.827-8.478-2.089c-1.768-2.918-0.831-6.698,2.085-8.478
						c8.757-5.292,17.291-11.189,25.377-17.524c2.684-2.104,6.564-1.633,8.665,1.046c1.769,2.257,1.718,5.358,0.064,7.539
						C1555.242,1013.517,1554.871,1013.897,1554.441,1014.234z M1636.935,886.983c-3.258-1.003-5.085-4.46-4.082-7.718
						c3.019-9.801,5.465-19.883,7.266-29.972c0.604-3.352,3.812-5.587,7.16-4.994c3.358,0.601,5.595,3.807,4.994,7.164
						c-1.886,10.581-4.451,21.159-7.62,31.437c-0.221,0.71-0.557,1.352-0.981,1.912
						C1642.15,886.821,1639.481,887.767,1636.935,886.983z M1499.223,1047.606c-9.798,4.401-19.97,8.247-30.233,11.436
						c-3.256,1.012-6.717-0.811-7.729-4.067c-1.012-3.257,0.803-6.719,4.066-7.729c9.792-3.036,19.49-6.707,28.834-10.908
						c3.109-1.396,6.764-0.009,8.162,3.106c0.958,2.13,0.605,4.521-0.716,6.263
						C1501.005,1046.502,1500.2,1047.167,1499.223,1047.606z M1437.602,1066.761c-10.588,1.93-21.389,3.233-32.098,3.875
						c-3.402,0.205-6.325-2.386-6.529-5.79c-0.207-3.4,2.385-6.329,5.793-6.533c10.211-0.615,20.515-1.86,30.62-3.702
						c3.354-0.612,6.569,1.614,7.181,4.968c0.322,1.772-0.146,3.506-1.156,4.839
						C1440.513,1065.606,1439.182,1066.473,1437.602,1066.761z M1373.163,1070.611c-10.75-0.66-21.553-1.988-32.103-3.941
						c-3.356-0.623-5.568-3.843-4.947-7.197c0.619-3.352,3.846-5.562,7.193-4.946c10.062,1.867,20.362,3.131,30.61,3.755
						c3.404,0.209,5.995,3.139,5.784,6.542c-0.074,1.264-0.527,2.411-1.237,3.348
						C1377.257,1069.762,1375.305,1070.74,1373.163,1070.611z"/>
					<path style="fill:#91B3FA;" d="M1654.79,822.438c0.719-0.949,1.172-2.115,1.242-3.394c0.286-5.277,0.414-10.585,0.388-15.78
						c-0.019-3.408-2.797-6.161-6.207-6.144c-3.403,0.027-6.154,2.798-6.144,6.208c0.027,4.954-0.098,10.019-0.367,15.054
						c-0.184,3.405,2.431,6.314,5.833,6.496C1651.66,824.99,1653.593,824.017,1654.79,822.438z"/>
				</g>
				<g>
					<path style="fill:#91B3FA;" d="M1577.39,733.986c-0.315-1.296-1.416-2.25-2.744-2.376l-37.88-3.587
						c-8.011-15.861-18.609-30.557-31.637-43.39l8.138-37.144c0.285-1.303-0.287-2.643-1.426-3.338l-38.962-23.767
						c-1.138-0.696-2.593-0.591-3.62,0.259l-29.303,24.234c-17.372-5.712-35.29-8.41-53.058-8.276l-20.523-32.039
						c-0.719-1.123-2.072-1.666-3.368-1.352l-44.357,10.744c-1.296,0.313-2.251,1.416-2.376,2.744l-3.587,37.879
						c-15.861,8.011-30.559,18.609-43.391,31.637l-37.144-8.139c-1.303-0.285-2.643,0.287-3.338,1.425l-23.768,38.963
						c-0.695,1.139-0.589,2.592,0.26,3.62l24.234,29.303c-5.712,17.372-8.41,35.29-8.275,53.058l-32.04,20.523
						c-1.123,0.719-1.666,2.072-1.352,3.368l10.744,44.358c0.314,1.296,1.416,2.25,2.743,2.376l37.881,3.587
						c8.01,15.861,18.608,30.558,31.636,43.39l-8.138,37.144c-0.286,1.302,0.286,2.643,1.425,3.338l38.963,23.768
						c1.139,0.694,2.592,0.59,3.62-0.26l29.302-24.233c17.371,5.712,35.29,8.41,53.058,8.275l20.523,32.04
						c0.719,1.123,2.072,1.666,3.369,1.352l44.357-10.744c1.297-0.314,2.25-1.416,2.377-2.744l3.587-37.88
						c15.861-8.011,30.558-18.609,43.391-31.637l37.143,8.139c1.303,0.285,2.643-0.287,3.338-1.426l23.767-38.963
						c0.694-1.139,0.59-2.593-0.26-3.62l-24.233-29.303c5.712-17.371,8.409-35.29,8.275-53.058l32.04-20.523
						c1.123-0.719,1.666-2.072,1.352-3.368L1577.39,733.986z"/>
					<g>
						<path style="fill:#BDD0FB;" d="M1420.708,836.674c-8.905,8.74-20.68,13.485-33.155,13.363
							c-12.47-0.118-24.151-5.089-32.886-13.996c-18.031-18.38-17.74-47.955,0.635-66.043c18.389-18.028,48.012-17.741,66.037,0.638
							c8.737,8.904,13.482,20.678,13.363,33.151c-0.098,10.139-3.402,19.755-9.419,27.692
							C1423.899,833.303,1422.37,835.041,1420.708,836.674z M1363.478,827.393c6.427,6.553,15.018,10.21,24.197,10.299
							c9.172,0.088,17.834-3.404,24.385-9.828l0,0c6.542-6.434,10.205-15.018,10.294-24.196c0.092-9.172-3.405-17.834-9.826-24.382
							c-13.264-13.522-35.053-13.733-48.579-0.473c-1.219,1.199-2.329,2.463-3.333,3.787
							C1350.498,795.943,1351.413,815.094,1363.478,827.393z"/>
					</g>
					<path style="fill:#BDD0FB;" d="M1479.67,873.827c2.36-3.113,4.58-6.371,6.66-9.773c4.125-6.758,7.567-13.942,10.235-21.373
						c0.117-0.335,0.235-0.669,0.352-1.004c0.905-2.59-0.018-5.375-2.092-6.951c-0.504-0.382-1.078-0.693-1.707-0.912
						c-3.219-1.123-6.727,0.59-7.859,3.799c-2.425,6.961-5.613,13.691-9.47,20.005l-0.002,0.002
						c-0.211,0.347-0.428,0.693-0.641,1.035c-9.263,14.862-21.879,26.852-36.725,35.257c-8.059,4.562-16.782,8.064-25.993,10.383
						c-0.075,0.019-0.149,0.038-0.224,0.057c-0.232,0.055-0.458,0.115-0.687,0.168c-26.987,6.535-54.905,2.173-78.609-12.288
						c-3.069-1.869-6.016-3.88-8.841-6.022c-19.004-14.412-32.363-34.755-38.057-58.251c-6.535-26.987-2.168-54.902,12.291-78.603
						c14.459-23.682,37.287-40.358,64.271-46.9c26.986-6.535,54.905-2.173,78.609,12.288c3.017,1.838,5.929,3.826,8.725,5.946
						c12.125,9.196,22.099,20.939,29.17,34.425c0.437,0.831,1.033,1.522,1.736,2.051c1.845,1.399,4.41,1.698,6.597,0.549
						c3.015-1.592,4.186-5.312,2.599-8.339c-7.913-15.09-19.074-28.231-32.633-38.519c-3.132-2.375-6.388-4.597-9.761-6.655
						c-26.524-16.179-57.756-21.06-87.952-13.746c-30.189,7.315-55.735,25.921-71.903,52.466
						c-16.18,26.52-21.063,57.75-13.745,87.945c6.364,26.286,21.311,49.043,42.573,65.167c3.156,2.393,6.457,4.646,9.886,6.739
						C1377.823,934.093,1444.087,920.761,1479.67,873.827z"/>
				</g>
			</g>
		</g>
		<g>
			<g>
				
					<linearGradient id="SVGID_00000029764476482511066640000009972641031064838327_" gradientUnits="userSpaceOnUse" x1="2883.6602" y1="1321.6169" x2="3085.0205" y2="1087.8954">
					<stop  offset="0" style="stop-color:#E1473D"/>
					<stop  offset="1" style="stop-color:#E9605A"/>
				</linearGradient>
				
					<circle style="fill:url(#SVGID_00000029764476482511066640000009972641031064838327_);" cx="3089.088" cy="1083.174" r="150.121"/>
				
					<linearGradient id="SVGID_00000078736617618720902570000008048866860471879591_" gradientUnits="userSpaceOnUse" x1="3151.4104" y1="883.9313" x2="3039.7261" y2="1240.9828">
					<stop  offset="0" style="stop-color:#FF928E"/>
					<stop  offset="1" style="stop-color:#FE7062"/>
				</linearGradient>
				
					<circle style="fill:url(#SVGID_00000078736617618720902570000008048866860471879591_);" cx="3089.088" cy="1083.175" r="145.13"/>
				<path style="opacity:0.61;fill:#FFFFFF;" d="M2969.411,1028.984c-0.923,0-1.861-0.208-2.742-0.655
					c-3.006-1.515-4.212-5.182-2.693-8.188c23.982-47.516,71.924-77.032,125.113-77.032c8.492,0,16.991,0.765,25.262,2.271
					c3.313,0.604,5.51,3.777,4.906,7.091c-0.602,3.313-3.786,5.504-7.09,4.905c-7.552-1.378-15.318-2.074-23.078-2.074
					c-48.561,0-92.332,26.95-114.23,70.334C2973.787,1027.76,2971.64,1028.984,2969.411,1028.984z"/>
				
					<ellipse transform="matrix(0.7071 -0.7071 0.7071 0.7071 137.543 2504.7314)" style="opacity:0.78;fill:#FFFFFF;" cx="3092.25" cy="1086.337" rx="122.835" ry="122.835"/>
				<g>
					
						<linearGradient id="SVGID_00000004545761908890415530000015677849667432608943_" gradientUnits="userSpaceOnUse" x1="3134.7085" y1="793.2944" x2="3111.0178" y2="962.5135">
						<stop  offset="0" style="stop-color:#FF928E"/>
						<stop  offset="1" style="stop-color:#FE7062"/>
					</linearGradient>
					<path style="fill:url(#SVGID_00000004545761908890415530000015677849667432608943_);" d="M3080.196,1177.653v-13.363
						c-13.931-0.558-27.711-3.846-37.498-8.13c-3.495-1.53-5.276-5.452-4.272-9.132l3.395-12.448
						c1.246-4.567,6.211-6.929,10.577-5.099c9.709,4.07,21.695,7.29,34.622,7.29c13.418,0,23.425-4.549,23.425-13.874
						c0-8.414-7.732-13.417-26.381-18.42c-26.609-7.278-45.714-18.877-45.714-42.302c0-21.152,15.466-37.299,42.302-41.62v-13.365
						c0-4.301,3.486-7.786,7.787-7.786h7.851c4.301,0,7.787,3.486,7.787,7.786v11.999c12.891,0.516,22.275,2.721,29.722,5.337
						c3.815,1.341,5.9,5.451,4.842,9.354l-3.123,11.513c-1.204,4.439-5.948,6.871-10.25,5.244
						c-6.856-2.593-16.55-5.293-29.151-5.293c-15.92,0-20.468,6.596-20.468,12.508c0,7.278,9.552,12.281,30.248,18.65
						c29.566,8.869,41.846,21.15,41.846,43.211c0,20.241-15.009,38.436-44.121,42.985v14.956c0,4.301-3.486,7.787-7.787,7.787
						h-7.853C3083.682,1185.44,3080.196,1181.954,3080.196,1177.653z"/>
				</g>
			</g>
			<g>
				
					<linearGradient id="SVGID_00000085945070021080518580000017763038095687044009_" gradientUnits="userSpaceOnUse" x1="2674.7222" y1="1088.6169" x2="2831.9612" y2="906.1076">
					<stop  offset="0" style="stop-color:#E1473D"/>
					<stop  offset="1" style="stop-color:#E9605A"/>
				</linearGradient>
				
					<circle style="fill:url(#SVGID_00000085945070021080518580000017763038095687044009_);" cx="2835.137" cy="902.421" r="117.227"/>
				
					<linearGradient id="SVGID_00000007405931175293153750000015153161346614409345_" gradientUnits="userSpaceOnUse" x1="2890.5786" y1="681.8868" x2="2814.4304" y2="984.7884">
					<stop  offset="0" style="stop-color:#FF928E"/>
					<stop  offset="1" style="stop-color:#FE7062"/>
				</linearGradient>
				
					<circle style="fill:url(#SVGID_00000007405931175293153750000015153161346614409345_);" cx="2835.137" cy="902.421" r="113.33"/>
				<path style="opacity:0.61;fill:#FFFFFF;" d="M2741.683,860.104c-0.72,0-1.453-0.163-2.141-0.511
					c-2.348-1.183-3.289-4.047-2.104-6.395c18.727-37.104,56.164-60.153,97.698-60.153c6.631,0,13.268,0.597,19.727,1.773
					c2.587,0.472,4.302,2.95,3.83,5.537c-0.469,2.587-2.957,4.298-5.537,3.83c-5.897-1.076-11.961-1.62-18.021-1.62
					c-37.92,0-72.1,21.045-89.201,54.923C2745.1,859.149,2743.424,860.104,2741.683,860.104z"/>
				
					<ellipse transform="matrix(0.2298 -0.9732 0.9732 0.2298 1304.9755 3458.6875)" style="opacity:0.78;fill:#FFFFFF;" cx="2837.606" cy="904.89" rx="95.92" ry="95.919"/>
				<g>
					
						<linearGradient id="SVGID_00000043440711396483180620000009533107710034054330_" gradientUnits="userSpaceOnUse" x1="2865.7659" y1="699.6146" x2="2845.4597" y2="853.6035">
						<stop  offset="0" style="stop-color:#FF928E"/>
						<stop  offset="1" style="stop-color:#FE7062"/>
					</linearGradient>
					<path style="fill:url(#SVGID_00000043440711396483180620000009533107710034054330_);" d="M2828.194,976.198v-10.435
						c-10.879-0.435-21.639-3.003-29.281-6.349c-2.729-1.194-4.12-4.258-3.336-7.131l2.651-9.721c0.972-3.566,4.85-5.41,8.259-3.982
						c7.582,3.178,16.941,5.692,27.035,5.692c10.478,0,18.292-3.552,18.292-10.834c0-6.57-6.038-10.477-20.601-14.384
						c-20.778-5.683-35.697-14.741-35.697-33.033c0-16.517,12.077-29.126,33.033-32.5v-10.436c0-3.358,2.722-6.08,6.08-6.08h6.132
						c3.358,0,6.08,2.723,6.08,6.08v9.37c10.066,0.403,17.394,2.124,23.209,4.167c2.979,1.047,4.608,4.256,3.781,7.304l-2.438,8.99
						c-0.94,3.466-4.645,5.365-8.005,4.095c-5.354-2.025-12.924-4.133-22.763-4.133c-12.432,0-15.984,5.15-15.984,9.768
						c0,5.683,7.459,9.59,23.62,14.563c23.088,6.926,32.677,16.516,32.677,33.743c0,15.806-11.721,30.014-34.454,33.566v11.679
						c0,3.358-2.722,6.08-6.08,6.08h-6.132C2830.916,982.279,2828.194,979.556,2828.194,976.198z"/>
				</g>
			</g>
			<g>
				
					<linearGradient id="SVGID_00000100341005047797138730000017067357468064459145_" gradientUnits="userSpaceOnUse" x1="2883.5842" y1="882.8062" x2="3052.9229" y2="686.2528">
					<stop  offset="0" style="stop-color:#E1473D"/>
					<stop  offset="1" style="stop-color:#E9605A"/>
				</linearGradient>
				
					<circle style="fill:url(#SVGID_00000100341005047797138730000017067357468064459145_);" cx="3056.343" cy="682.283" r="126.248"/>
				
					<linearGradient id="SVGID_00000147915009313707509000000012404840057047649958_" gradientUnits="userSpaceOnUse" x1="3123.9822" y1="447.7283" x2="3019.0662" y2="811.5493">
					<stop  offset="0" style="stop-color:#FF928E"/>
					<stop  offset="1" style="stop-color:#FE7062"/>
				</linearGradient>
				
					<circle style="fill:url(#SVGID_00000147915009313707509000000012404840057047649958_);" cx="3056.343" cy="682.283" r="122.05"/>
				<path style="opacity:0.61;fill:#FFFFFF;" d="M2955.699,635.488c-0.591,0-1.192-0.133-1.757-0.419
					c-1.926-0.971-2.698-3.321-1.726-5.247c19.962-39.545,59.86-64.111,104.127-64.111c7.061,0,14.137,0.637,21.026,1.892
					c2.123,0.387,3.53,2.42,3.143,4.543c-0.385,2.122-2.428,3.523-4.543,3.143c-6.43-1.173-13.033-1.766-19.626-1.766
					c-41.3,0-78.527,22.922-97.154,59.82C2958.503,634.705,2957.128,635.488,2955.699,635.488z"/>
				<circle style="opacity:0.78;fill:#FFFFFF;" cx="3059.002" cy="684.942" r="103.3"/>
				<g>
					
						<linearGradient id="SVGID_00000098936796627018498610000005683748264144883333_" gradientUnits="userSpaceOnUse" x1="3090.9453" y1="438.5827" x2="3074.0234" y2="573.9579">
						<stop  offset="0" style="stop-color:#FF928E"/>
						<stop  offset="1" style="stop-color:#FE7062"/>
					</linearGradient>
					<path style="fill:url(#SVGID_00000098936796627018498610000005683748264144883333_);" d="M3048.865,761.737v-11.239
						c-11.716-0.469-23.304-3.234-31.534-6.837c-2.939-1.287-4.437-4.585-3.593-7.68l2.855-10.468
						c1.048-3.84,5.224-5.826,8.895-4.288c8.164,3.423,18.245,6.131,29.116,6.131c11.284,0,19.7-3.826,19.7-11.668
						c0-7.076-6.503-11.284-22.187-15.491c-22.377-6.121-38.444-15.875-38.444-35.575c0-17.788,13.006-31.367,35.575-35.001v-11.24
						c0-3.617,2.931-6.549,6.548-6.549h6.603c3.617,0,6.549,2.932,6.549,6.549v10.091c10.841,0.434,18.732,2.288,24.995,4.488
						c3.208,1.127,4.962,4.584,4.072,7.866l-2.625,9.682c-1.012,3.733-5.003,5.778-8.621,4.41c-5.766-2.18-13.918-4.45-24.515-4.45
						c-13.388,0-17.213,5.546-17.213,10.519c0,6.12,8.032,10.328,25.438,15.684c24.864,7.459,35.192,17.787,35.192,36.339
						c0,17.022-12.623,32.323-37.104,36.149v12.577c0,3.616-2.932,6.548-6.548,6.548h-6.604
						C3051.797,768.285,3048.865,765.353,3048.865,761.737z"/>
				</g>
			</g>
		</g>
		<g>
			<g>
				
					<rect x="543.497" y="2792.598" transform="matrix(-1 -1.224647e-16 1.224647e-16 -1 1311.6941 5988.5933)" style="fill:#91B3FA;" width="224.699" height="403.397"/>
			</g>
			<g>
				
					<rect x="814.6" y="2616.056" transform="matrix(-1 -1.224647e-16 1.224647e-16 -1 1853.899 5812.0513)" style="fill:#91B3FA;" width="224.7" height="579.939"/>
			</g>
			<g>
				
					<rect x="1086.267" y="2507.639" transform="matrix(-1 -1.224647e-16 1.224647e-16 -1 2397.2329 5703.6343)" style="fill:#91B3FA;" width="224.699" height="688.356"/>
			</g>
			<g>
				
					<rect x="1358.975" y="2625.584" transform="matrix(-1 -1.224647e-16 1.224647e-16 -1 2942.6487 5821.5791)" style="fill:#91B3FA;" width="224.699" height="570.411"/>
			</g>
			<g>
				
					<rect x="1635.805" y="2425.66" transform="matrix(-1 -1.224647e-16 1.224647e-16 -1 3496.3091 5619.2485)" style="fill:#91B3FA;" width="224.699" height="767.929"/>
			</g>
			<g>
				
					<rect x="1901.428" y="2730.807" transform="matrix(-1 -1.224647e-16 1.224647e-16 -1 4027.5549 5930.3872)" style="fill:#91B3FA;" width="224.699" height="468.772"/>
			</g>
			<g>
				
					<rect x="2174.452" y="2897.345" transform="matrix(-1 -1.224647e-16 1.224647e-16 -1 4573.603 6097.3218)" style="fill:#91B3FA;" width="224.699" height="302.632"/>
			</g>
			<g>
				
					<rect x="2448.424" y="2538.594" transform="matrix(-1 -1.224647e-16 1.224647e-16 -1 5121.5483 5736.5732)" style="fill:#91B3FA;" width="224.699" height="659.385"/>
			</g>
			<g>
				
					<rect x="2714.047" y="2226.632" transform="matrix(-1 -1.224647e-16 1.224647e-16 -1 5652.7939 5423.833)" style="fill:#91B3FA;" width="224.699" height="970.57"/>
			</g>
			<g>
				
					<rect x="2987.071" y="1739.192" transform="matrix(-1 -1.224647e-16 1.224647e-16 -1 6198.8423 4940.1748)" style="fill:#91B3FA;" width="224.699" height="1461.79"/>
			</g>
		</g>
		<g>
			
				<linearGradient id="SVGID_00000110461607940328414510000008084380072377354921_" gradientUnits="userSpaceOnUse" x1="1730.452" y1="1111.0747" x2="1690.9438" y2="1371.8306">
				<stop  offset="0" style="stop-color:#09005D"/>
				<stop  offset="1" style="stop-color:#1A0F91"/>
			</linearGradient>
			<path style="fill:url(#SVGID_00000110461607940328414510000008084380072377354921_);" d="M1821.612,1131.047
				c-0.343-4.258-4.693-7.943-12.056-10.898c8.003-4.413,12.43-9.143,12.056-13.782c-1.132-14.037-45.587-21.907-99.293-17.577
				c-53.706,4.331-96.326,19.22-95.194,33.258c0.344,4.258,4.693,7.943,12.057,10.898c-8.003,4.413-12.43,9.143-12.057,13.782
				c0.344,4.258,4.693,7.943,12.057,10.898c-8.003,4.413-12.43,9.143-12.057,13.782c0.344,4.258,4.693,7.943,12.057,10.898
				c-8.003,4.413-12.43,9.143-12.057,13.782c0.501,6.208,9.486,11.207,23.987,14.481c-0.188,4.588-0.083,9.616,0.368,15.168
				c2.101,25.867,31.196,46.148,69.678,46.148c38.483,0,71.79-27.653,72.168-53.602c0.093-6.359-0.177-11.957-0.753-16.931
				c18.413-6.149,29.627-13.66,29.039-20.945c-0.343-4.257-4.693-7.943-12.056-10.897c8.003-4.413,12.43-9.144,12.056-13.782
				c-0.343-4.258-4.693-7.943-12.056-10.897C1817.559,1140.417,1821.986,1135.686,1821.612,1131.047z"/>
			<g>
				
					<linearGradient id="SVGID_00000027574634648522715980000010970033472203147425_" gradientUnits="userSpaceOnUse" x1="1714.8536" y1="1228.4913" x2="1630.5834" y2="1535.4763">
					<stop  offset="0" style="stop-color:#4F52FF"/>
					<stop  offset="1" style="stop-color:#4042E2"/>
				</linearGradient>
				<path style="fill:url(#SVGID_00000027574634648522715980000010970033472203147425_);" d="M1697.469,1216.155
					c-15.95,0-30.544-1.174-42.603-3.483c-0.7-0.133-1.158-0.809-1.024-1.509c0.134-0.698,0.806-1.157,1.509-1.023
					c18.869,3.613,44.071,4.408,70.964,2.24c22.006-1.775,42.586-5.324,59.514-10.265c0.685-0.199,1.4,0.193,1.6,0.877
					c0.2,0.684-0.193,1.4-0.877,1.6c-17.094,4.989-37.852,8.571-60.029,10.359
					C1716.532,1215.756,1706.77,1216.155,1697.469,1216.155z"/>
				
					<linearGradient id="SVGID_00000116213491362361475650000011415341974168609714_" gradientUnits="userSpaceOnUse" x1="1711.7349" y1="1227.6349" x2="1627.4647" y2="1534.6198">
					<stop  offset="0" style="stop-color:#4F52FF"/>
					<stop  offset="1" style="stop-color:#4042E2"/>
				</linearGradient>
				<path style="fill:url(#SVGID_00000116213491362361475650000011415341974168609714_);" d="M1697.736,1191.453
					c-20.724,0-39.243-1.949-52.306-5.669c-0.685-0.195-1.082-0.909-0.887-1.594c0.196-0.685,0.906-1.082,1.594-0.887
					c18.614,5.301,48.587,6.944,80.177,4.397c31.249-2.52,60.392-8.861,77.959-16.963c0.647-0.297,1.414-0.016,1.712,0.631
					c0.298,0.646,0.016,1.413-0.631,1.712c-17.828,8.222-47.298,14.648-78.832,17.191
					C1716.681,1191.064,1706.988,1191.453,1697.736,1191.453z"/>
				
					<linearGradient id="SVGID_00000093142979068003668350000004601541922008563367_" gradientUnits="userSpaceOnUse" x1="1703.9006" y1="1225.4845" x2="1619.6304" y2="1532.4697">
					<stop  offset="0" style="stop-color:#4F52FF"/>
					<stop  offset="1" style="stop-color:#4042E2"/>
				</linearGradient>
				<path style="fill:url(#SVGID_00000093142979068003668350000004601541922008563367_);" d="M1697.471,1166.791
					c-22.375,0-41.956-2.29-55.135-6.635c-0.677-0.223-1.044-0.952-0.821-1.629c0.223-0.677,0.95-1.045,1.628-0.821
					c18.341,6.047,49.433,8.033,83.171,5.314c31.247-2.519,60.39-8.861,77.959-16.963c0.647-0.297,1.414-0.015,1.712,0.631
					c0.298,0.646,0.016,1.413-0.631,1.712c-17.83,8.223-47.3,14.65-78.832,17.192
					C1716.529,1166.397,1706.759,1166.791,1697.471,1166.791z"/>
				
					<linearGradient id="SVGID_00000091704831023780725820000008505872665961580444_" gradientUnits="userSpaceOnUse" x1="1701.802" y1="1224.9089" x2="1617.5311" y2="1531.8965">
					<stop  offset="0" style="stop-color:#4F52FF"/>
					<stop  offset="1" style="stop-color:#4042E2"/>
				</linearGradient>
				<path style="fill:url(#SVGID_00000091704831023780725820000008505872665961580444_);" d="M1697.644,1142.099
					c-17.75,0-33.893-1.435-46.443-4.223c-0.695-0.154-1.134-0.843-0.98-1.538c0.154-0.697,0.846-1.135,1.539-0.98
					c18.873,4.194,46.047,5.28,74.554,2.981c30.969-2.498,59.964-8.77,77.561-16.78c0.648-0.297,1.413-0.009,1.708,0.639
					c0.296,0.648,0.009,1.413-0.64,1.708c-17.855,8.127-47.171,14.484-78.421,17.003
					C1716.648,1141.707,1706.925,1142.099,1697.644,1142.099z"/>
			</g>
			
				<linearGradient id="SVGID_00000029021752121567184200000003544223832144804024_" gradientUnits="userSpaceOnUse" x1="1715.9341" y1="411.394" x2="1743.0085" y2="1257.4906">
				<stop  offset="0" style="stop-color:#FF928E"/>
				<stop  offset="1" style="stop-color:#FE7062"/>
			</linearGradient>
			<path style="fill:url(#SVGID_00000029021752121567184200000003544223832144804024_);" d="M1591.078,1006.467
				c-6.523-23.103-17.602-44.695-32.524-63.5c-31.972-40.295-84.131-122.242-90.55-234.086
				c-9.339-162.682,134.942-244.129,266.6-233.072c131.658,11.056,261.571,109.086,247.349,260.43
				c-8.751,93.122-60.873,163.756-99.68,204.321c-24.644,25.759-42.221,57.309-51.736,91.664
				c-11.646,42.049-39.362,94.45-105.239,97.644C1640.056,1134,1604.652,1054.544,1591.078,1006.467z"/>
			
				<linearGradient id="SVGID_00000166665593305935615220000004476475096973172888_" gradientUnits="userSpaceOnUse" x1="1773.2479" y1="883.704" x2="1792.1659" y2="1484.7795">
				<stop  offset="0" style="stop-color:#E1473D"/>
				<stop  offset="1" style="stop-color:#E9605A"/>
			</linearGradient>
			<path style="fill:url(#SVGID_00000166665593305935615220000004476475096973172888_);" d="M1747.073,1097.425l46.067-299.624
				c0.951-6.19,3.998-10.347,6.804-9.285c2.806,1.063,4.309,6.942,3.358,13.132c-0.026,0.164-0.059,0.368-0.088,0.531
				l-52.474,296.839c-0.395,2.232-1.528,3.642-2.532,3.149C1747.235,1101.688,1746.743,1099.586,1747.073,1097.425z"/>
			
				<linearGradient id="SVGID_00000005980520171641716380000010894720598420271501_" gradientUnits="userSpaceOnUse" x1="1669.0377" y1="886.9844" x2="1687.9557" y2="1488.0598">
				<stop  offset="0" style="stop-color:#E1473D"/>
				<stop  offset="1" style="stop-color:#E9605A"/>
			</linearGradient>
			<path style="fill:url(#SVGID_00000005980520171641716380000010894720598420271501_);" d="M1699.254,1099.804l-46.067-299.624
				c-0.952-6.19-3.998-10.346-6.804-9.284c-2.806,1.062-4.309,6.941-3.357,13.131c0.025,0.165,0.059,0.368,0.087,0.531
				l52.474,296.839c0.394,2.232,1.528,3.642,2.532,3.149C1699.092,1104.067,1699.584,1101.966,1699.254,1099.804z"/>
			<path style="opacity:0.61;fill:#FFFFFF;" d="M1792.809,772.075c-1.169-1.881-3.877-2.584-6.047-1.57l-25.651,11.986l-8.904-25.37
				c-0.471-1.324-1.563-2.497-3.119-3.139c-2.951-1.216-6.48-0.128-7.882,2.43l-0.045,0.082l-21.096,38.463l-19.575-54.754
				l-0.032-0.091c-0.479-1.336-1.49-2.536-2.963-3.341c-3.282-1.792-7.619-0.938-9.686,1.908l-29.492,40.599
				c-1.199,1.664-0.787,3.893,1.039,5.123c1.949,1.313,4.757,1.008,6.271-0.681l25.967-28.966l23.379,52.087l0.018,0.04
				c0.375,0.833,1.08,1.561,2.06,2.019c2.193,1.027,4.932,0.319,6.118-1.583l22.562-36.205l8.491,18.312l0.075,0.163
				c0.062,0.131,0.132,0.261,0.211,0.389c1.168,1.88,3.873,2.582,6.042,1.569l30.448-14.227
				C1793.168,776.303,1793.979,773.957,1792.809,772.075z"/>
			<path style="opacity:0.61;fill:#FFFFFF;" d="M1883.275,901.934c-1.213,0-2.435-0.373-3.482-1.154
				c-2.593-1.923-3.135-5.585-1.211-8.182c7.845-10.565,15.036-21.489,21.371-32.458c1.616-2.795,5.189-3.754,7.988-2.14
				c2.797,1.615,3.756,5.189,2.14,7.988c-6.558,11.358-13.996,22.658-22.105,33.585
				C1886.828,901.12,1885.063,901.934,1883.275,901.934z"/>
			<path style="opacity:0.61;fill:#FFFFFF;" d="M1921.172,836.893c-0.777,0-1.567-0.156-2.326-0.483
				c-2.962-1.287-4.321-4.733-3.035-7.695c48.679-112.104,6.697-206.2,6.269-207.136c-1.348-2.936-0.059-6.408,2.878-7.752
				c2.943-1.344,6.41-0.057,7.752,2.878c1.845,4.02,44.567,99.822-6.17,216.67C1925.583,835.579,1923.432,836.893,1921.172,836.893z
				"/>
		</g>
		<g>
			
				<linearGradient id="SVGID_00000077295348395829821120000016142287849439932311_" gradientUnits="userSpaceOnUse" x1="1771.0004" y1="2039.2078" x2="1558.2336" y2="2039.2078">
				<stop  offset="0" style="stop-color:#FEBBBA"/>
				<stop  offset="1" style="stop-color:#FF928E"/>
			</linearGradient>
			<path style="fill:url(#SVGID_00000077295348395829821120000016142287849439932311_);" d="M1558.234,1995.622
				c0,0,79.028,182.371,127.66,158.055c48.633-24.316,85.107-224.925,85.107-224.925S1619.024,1892.278,1558.234,1995.622z"/>
			
				<linearGradient id="SVGID_00000045595402170363070060000000012617419085640077_" gradientUnits="userSpaceOnUse" x1="643.7188" y1="2802.0562" x2="648.2681" y2="3302.4392" gradientTransform="matrix(-1 0 0 1 2378.2981 0)">
				<stop  offset="0" style="stop-color:#09005D"/>
				<stop  offset="1" style="stop-color:#1A0F91"/>
			</linearGradient>
			<path style="fill:url(#SVGID_00000045595402170363070060000000012617419085640077_);" d="M1833.388,3127.336
				c0,0,6.607,37.402,9.845,74.424c1.266,14.469-9.889,27.033-24.401,27.637c-49.303,2.053-154.766,6.047-192.61,4.358
				c-5.688-0.254-9.408-6.079-7.303-11.369l0,0c1.764-4.434,5.167-8.019,9.502-10.012l174.206-80.063L1833.388,3127.336z"/>
			
				<linearGradient id="SVGID_00000043451146486578523920000008106261802463406215_" gradientUnits="userSpaceOnUse" x1="539.4976" y1="3127.1824" x2="596.1625" y2="3127.1824" gradientTransform="matrix(-1 0 0 1 2378.2981 0)">
				<stop  offset="0" style="stop-color:#FEBBBA"/>
				<stop  offset="1" style="stop-color:#FF928E"/>
			</linearGradient>
			<path style="fill:url(#SVGID_00000043451146486578523920000008106261802463406215_);" d="M1838.801,3105.362l-5.309,44.736
				c0,0-30.516,14.205-51.356-1.79l12.638-49.855L1838.801,3105.362z"/>
			
				<linearGradient id="SVGID_00000182521527330370073290000000974067068545738140_" gradientUnits="userSpaceOnUse" x1="475.473" y1="3342.79" x2="514.1471" y2="2305.0552" gradientTransform="matrix(-1 0 0 1 2378.2981 0)">
				<stop  offset="0" style="stop-color:#09005D"/>
				<stop  offset="1" style="stop-color:#1A0F91"/>
			</linearGradient>
			<path style="fill:url(#SVGID_00000182521527330370073290000000974067068545738140_);" d="M1834.812,2264.299
				c2.293,11.682,12.306,582.994-48.763,839.019c-0.996,4.177,1.121,8.483,5.098,10.108c9.366,3.827,27.728,9.368,49.735,10.107
				c6.815,0.229,12.925-4.2,14.848-10.743c17.457-59.4,101.104-357.02,112.016-641.326c12.194-317.685,0-10.816,0-10.816
				l-7.15-196.373L1834.812,2264.299z"/>
			
				<linearGradient id="SVGID_00000115482390160969622610000014424403102184778153_" gradientUnits="userSpaceOnUse" x1="365.1695" y1="2804.5911" x2="369.7188" y2="3304.9717" gradientTransform="matrix(-1 0 0 1 2378.2981 0)">
				<stop  offset="0" style="stop-color:#09005D"/>
				<stop  offset="1" style="stop-color:#1A0F91"/>
			</linearGradient>
			<path style="fill:url(#SVGID_00000115482390160969622610000014424403102184778153_);" d="M2033.781,3146.848
				c0,0,10.517,18.883,20.698,69.054c1.838,9.061-4.492,17.733-13.694,18.637c-16.28,1.601-41.343,3.66-61.419,3.521
				c-9.255-0.063-16.477-8.121-15.363-17.309c2.225-18.313,9.152-48.36,30.553-71.779L2033.781,3146.848z"/>
			
				<linearGradient id="SVGID_00000165212097894493497090000010404449204627689634_" gradientUnits="userSpaceOnUse" x1="335.2798" y1="3124.2769" x2="384.2044" y2="3124.2769" gradientTransform="matrix(-1 0 0 1 2378.2981 0)">
				<stop  offset="0" style="stop-color:#FEBBBA"/>
				<stop  offset="1" style="stop-color:#FF928E"/>
			</linearGradient>
			<path style="fill:url(#SVGID_00000165212097894493497090000010404449204627689634_);" d="M2043.018,3089.307l-12.402,67.654
				c0,0-12.264,9.121-36.523,2.508l5.92-72.79L2043.018,3089.307z"/>
			
				<linearGradient id="SVGID_00000155147220802674953270000009410959206514023316_" gradientUnits="userSpaceOnUse" x1="379.8259" y1="3339.2256" x2="418.4999" y2="2301.4932" gradientTransform="matrix(-1 0 0 1 2378.2981 0)">
				<stop  offset="0" style="stop-color:#09005D"/>
				<stop  offset="1" style="stop-color:#1A0F91"/>
			</linearGradient>
			<path style="fill:url(#SVGID_00000155147220802674953270000009410959206514023316_);" d="M2076.524,2281.83
				c49.946,301.429-10.834,745.007-31.333,831.825c-1.255,5.315-5.545,9.388-10.932,10.281c-9.15,1.517-24.214,2.755-39.066-1.559
				c-5.117-1.486-8.712-6.101-8.921-11.426c-2.75-70.19,2.2-501.092-44.338-671.386c-2.359-8.63-7.629-16.156-14.921-21.341
				l-90.328-64.215l-6.924-103.798L2076.524,2281.83z"/>
			<g>
				
					<linearGradient id="SVGID_00000110441445515954044630000014204382951893050755_" gradientUnits="userSpaceOnUse" x1="2285.1382" y1="1400.0695" x2="2129.4563" y2="1653.8981">
					<stop  offset="0" style="stop-color:#FF928E"/>
					<stop  offset="1" style="stop-color:#FE7062"/>
				</linearGradient>
				<path style="fill:url(#SVGID_00000110441445515954044630000014204382951893050755_);" d="M1752.764,1722.064
					c182.371-18.237,320.334,27.917,320.334,27.917c44.617,260.334,7.803,560.612,7.803,560.612
					c-115.878,30.388-246.595-18.579-246.595-18.579c-19.26-108.813-109.12-415.051-109.12-415.051
					C1652.052,1867.887,1706.82,1726.659,1752.764,1722.064z"/>
			</g>
			
				<linearGradient id="SVGID_00000050622214598220865260000017658601038507003805_" gradientUnits="userSpaceOnUse" x1="2394.1648" y1="1466.9393" x2="2238.4832" y2="1720.7677">
				<stop  offset="0" style="stop-color:#FF928E"/>
				<stop  offset="1" style="stop-color:#FE7062"/>
			</linearGradient>
			<path style="fill:url(#SVGID_00000050622214598220865260000017658601038507003805_);" d="M2015.687,1894.915l57.41-144.933
				c0,0,139.81,94.994,162.802,215.435c-26.417,1.946-74.487,8.818-121.539,32.575
				C2104.021,1941.121,2015.687,1894.915,2015.687,1894.915z"/>
			
				<linearGradient id="SVGID_00000119096419951958502330000017409252977090674585_" gradientUnits="userSpaceOnUse" x1="151.3696" y1="2058.9312" x2="517.7189" y2="2058.9312" gradientTransform="matrix(-1 0 0 1 2378.2981 0)">
				<stop  offset="0" style="stop-color:#FEBBBA"/>
				<stop  offset="1" style="stop-color:#FF928E"/>
			</linearGradient>
			<path style="fill:url(#SVGID_00000119096419951958502330000017409252977090674585_);" d="M1881.352,2031.293
				c0,0,156.97,88.712,209.934,12.962c10.997-15.729,13.626-31.361,10.916-46.264c47.053-23.757,95.122-30.629,121.54-32.575
				c6.932,36.311,3.267,74.927-18.069,113.958c-92.775,169.712-345.093-9.379-345.093-9.379L1881.352,2031.293z"/>
			<g>
				
					<linearGradient id="SVGID_00000109752355975103446380000009965852164392790683_" gradientUnits="userSpaceOnUse" x1="1828.2358" y1="1697.0221" x2="1667.8492" y2="2073.3142">
					<stop  offset="0" style="stop-color:#09005D"/>
					<stop  offset="1" style="stop-color:#1A0F91"/>
				</linearGradient>
				<path style="fill:url(#SVGID_00000109752355975103446380000009965852164392790683_);" d="M1900.213,2143.523l-85.669-299.173
					c-0.973-3.396-3.869-5.873-7.379-6.282c-15.521-1.811-60.497-6.895-112.425-11.287c-62.551-5.291-135.19-9.578-178.597-5.932
					c-6.171,0.518-9.9,7.045-7.156,12.597c24.684,49.939,126.218,253.076,177.063,319.621c1.685,2.205,4.29,3.494,7.063,3.468
					l198.766-1.849C1897.662,2154.632,1901.805,2149.083,1900.213,2143.523z"/>
				<path style="fill:#91B3FA;" d="M1685.853,1800.842l-62.111-10.349c-3.308-0.551-6.017,2.609-4.966,5.793l6.149,18.633
					c0.535,1.621,1.949,2.795,3.643,3.021l59.769,7.984c3.092,0.413,5.642-2.397,4.931-5.435l-3.806-16.266
					C1689.051,1802.472,1687.628,1801.139,1685.853,1800.842z"/>
				<path style="fill:#91B3FA;" d="M1732.36,1853.425l-5.116-26.652c-0.513-2.674-2.72-4.693-5.428-4.969l-125.45-12.73
					c-4.223-0.428-7.604,3.441-6.614,7.568l7.977,33.212c0.638,2.657,2.951,4.576,5.681,4.713l122.59,6.172
					C1729.99,1860.941,1733.114,1857.348,1732.36,1853.425z"/>
				
					<linearGradient id="SVGID_00000154421982100235265820000013650881789514381955_" gradientUnits="userSpaceOnUse" x1="490.5192" y1="2020.5197" x2="604.6532" y2="2020.5197" gradientTransform="matrix(-1 0 0 1 2378.2981 0)">
					<stop  offset="0" style="stop-color:#FEBBBA"/>
					<stop  offset="1" style="stop-color:#FF928E"/>
				</linearGradient>
				<path style="fill:url(#SVGID_00000154421982100235265820000013650881789514381955_);" d="M1879.515,2071.242
					c0,0,11.933-49.071,7.12-66.48c-4.814-17.409-14.141-39.793-45.229-34.819c-31.087,4.974-67.761,18.07-67.761,18.07
					s1.853,22.676,25.481,15.36l-14.652,11.337c0,0,2.095,18.157,22.052,8.457l-13.628,15.034c0,0,8.571,14.914,23.254,5.348
					C1830.835,2033.985,1837.875,2077.152,1879.515,2071.242z"/>
				
					<linearGradient id="SVGID_00000108273703934104720700000001959587232556475814_" gradientUnits="userSpaceOnUse" x1="1263.8846" y1="2104.4849" x2="1378.0227" y2="2104.4849" gradientTransform="matrix(0.8472 -0.5312 0.5312 0.8472 -661.622 848.1048)">
					<stop  offset="0" style="stop-color:#FEBBBA"/>
					<stop  offset="1" style="stop-color:#FF928E"/>
				</linearGradient>
				<path style="fill:url(#SVGID_00000108273703934104720700000001959587232556475814_);" d="M1560.99,1998.233
					c0,0-36.177-35.236-41.348-52.542c-5.17-17.307-9.158-41.226,19.823-53.527c28.981-12.299,67.009-20.685,67.009-20.685
					s10.476,20.197-13.428,26.549l18.436,1.822c0,0,7.871,16.496-14.191,18.88l19.532,5.498c0,0,0.661,17.188-16.86,16.884
					C1582.441,1940.808,1599.408,1981.12,1560.99,1998.233z"/>
			</g>
			
				<linearGradient id="SVGID_00000137812377044083646190000008813556307063433120_" gradientUnits="userSpaceOnUse" x1="438.7545" y1="1678.6008" x2="583.5967" y2="1678.6008" gradientTransform="matrix(-1 0 0 1 2378.2981 0)">
				<stop  offset="0" style="stop-color:#FEBBBA"/>
				<stop  offset="1" style="stop-color:#FF928E"/>
			</linearGradient>
			<path style="fill:url(#SVGID_00000137812377044083646190000008813556307063433120_);" d="M1891.641,1600.484l47.625,137.731
				c0.789,2.281-0.149,4.807-2.261,5.976c-12.983,7.177-59.755,27.925-116.12-7.812c-5.873-3.722-9.869-9.794-10.761-16.689
				l-15.422-119.206H1891.641z"/>
			<g>
				
					<linearGradient id="SVGID_00000126286516704020568060000008241374069944169623_" gradientUnits="userSpaceOnUse" x1="-4954.7388" y1="-1219.483" x2="-5008.8652" y2="-1398.0039" gradientTransform="matrix(-0.746 -0.6659 -0.6659 0.746 -2748.0371 -803.1727)">
					<stop  offset="0" style="stop-color:#FEBBBA"/>
					<stop  offset="1" style="stop-color:#FF928E"/>
				</linearGradient>
				<path style="fill:url(#SVGID_00000126286516704020568060000008241374069944169623_);" d="M1788.014,1472.941
					c0,0-52.297,98.446-45.594,138.212c6.704,39.767,71.52,36.912,128.118,4.614l39.551-106.298L1788.014,1472.941z"/>
				
					<linearGradient id="SVGID_00000104672704319330616330000014722713263071061920_" gradientUnits="userSpaceOnUse" x1="-5003.5723" y1="-1530.5291" x2="-4958.2959" y2="-1272.287" gradientTransform="matrix(-0.746 -0.6659 -0.6659 0.746 -2748.0371 -803.1727)">
					<stop  offset="0" style="stop-color:#09005D"/>
					<stop  offset="1" style="stop-color:#1A0F91"/>
				</linearGradient>
				<path style="fill:url(#SVGID_00000104672704319330616330000014722713263071061920_);" d="M1868.035,1563.565
					c-2.3-1.019-3.148-3.834-1.771-5.938c4.19-6.401,12.044-19.46,14.55-30.893c0,0,9.402-6.021-23.928-13.999
					c-33.331-7.978-83.035-20.361-93.483-48.73c-10.186-27.661,16.577-97.223,59.276-41.797c1.624,2.109,4.807,2.156,6.428,0.045
					c7-9.11,25.403-28.02,50.952-16.556c23.91,10.729,26.602,28.248,26.274,37.079c-0.096,2.597,2.226,4.617,4.78,4.13
					c12.088-2.305,41.096-4.287,54.636,25.472c11.153,24.511,3.904,38.387-2.697,45.172c-2.14,2.199-1.203,5.819,1.73,6.717
					c7.945,2.432,18.204,9.168,17.177,27.782c-1.419,25.732-30.189,23.465-38.379,22.292c-1.343-0.191-2.695,0.269-3.604,1.274
					c-7.023,7.772-38.667,40.774-72.915,44.752c-2.965,0.344-5.263-2.585-4.292-5.407l14.822-43.084
					c0.688-2.001-0.269-4.196-2.204-5.053L1868.035,1563.565z"/>
				
					<linearGradient id="SVGID_00000044883294063152475720000017787276152735587261_" gradientUnits="userSpaceOnUse" x1="-5010.0693" y1="-1220.3146" x2="-5058.7671" y2="-1380.9314" gradientTransform="matrix(-0.746 -0.6659 -0.6659 0.746 -2748.0371 -803.1727)">
					<stop  offset="0" style="stop-color:#FEBBBA"/>
					<stop  offset="1" style="stop-color:#FF928E"/>
				</linearGradient>
				<path style="fill:url(#SVGID_00000044883294063152475720000017787276152735587261_);" d="M1862.078,1569.68
					c0,0,37.236-25.548,39.957-4.033c2.721,21.514-33.531,31.163-51.487,23.142L1862.078,1569.68z"/>
			</g>
		</g>
		<g>
			
				<linearGradient id="SVGID_00000125579716292267201330000011003872261869212065_" gradientUnits="userSpaceOnUse" x1="371.0061" y1="2254.7515" x2="552.3859" y2="2254.7515" gradientTransform="matrix(1 0 0 1 395.7825 0)">
				<stop  offset="0" style="stop-color:#FEBBBA"/>
				<stop  offset="1" style="stop-color:#FF928E"/>
			</linearGradient>
			<path style="fill:url(#SVGID_00000125579716292267201330000011003872261869212065_);" d="M832.072,2161.271
				c-18.607,19.86-46.005,37.024-65.284,47.725c28.792,35.589,67.75,71.228,119.325,106.112l14.761,33.123l47.294-56.682
				C948.168,2291.549,863.307,2249.318,832.072,2161.271z"/>
			
				<linearGradient id="SVGID_00000072246114682282182360000012378534740413817235_" gradientUnits="userSpaceOnUse" x1="617.7225" y1="2823.3064" x2="622.2718" y2="3323.689" gradientTransform="matrix(1 0 0 1 395.7825 0)">
				<stop  offset="0" style="stop-color:#09005D"/>
				<stop  offset="1" style="stop-color:#1A0F91"/>
			</linearGradient>
			<path style="fill:url(#SVGID_00000072246114682282182360000012378534740413817235_);" d="M1085.168,3236.338
				c0.016-1.013-0.051-2.039-0.311-3.073c-15.319-60.73-91.348-98.557-91.348-98.557l-30.128,2.362
				c-17.323,53.527-15.096,86.356-12.315,100.979c0.076,0.41,0.202,0.799,0.31,1.196
				C976.23,3241.465,1027.383,3242.915,1085.168,3236.338z"/>
			
				<linearGradient id="SVGID_00000078750339790619781900000014874236023303471014_" gradientUnits="userSpaceOnUse" x1="663.9883" y1="2273.0022" x2="623.3759" y2="3217.2454" gradientTransform="matrix(1 0 0 1 395.7825 0)">
				<stop  offset="0" style="stop-color:#4F52FF"/>
				<stop  offset="1" style="stop-color:#4042E2"/>
			</linearGradient>
			<path style="fill:url(#SVGID_00000078750339790619781900000014874236023303471014_);" d="M951.377,3239.245
				c1.342,4.883,4.946,8.685,9.56,9.656c35.353,7.435,91.543,1.451,115.135-1.633c5.205-0.68,9.01-5.494,9.096-10.928
				C1027.383,3242.915,976.23,3241.465,951.377,3239.245z"/>
			
				<linearGradient id="SVGID_00000069393067998257072170000011869560316435306888_" gradientUnits="userSpaceOnUse" x1="591.2033" y1="3033.073" x2="565.2234" y2="3259.8074" gradientTransform="matrix(1 0 0 1 395.7825 0)">
				<stop  offset="0" style="stop-color:#FEBBBA"/>
				<stop  offset="1" style="stop-color:#FF928E"/>
			</linearGradient>
			<path style="fill:url(#SVGID_00000069393067998257072170000011869560316435306888_);" d="M951.267,3092.196l12.76,61.427
				c0.935,4.5,4.394,7.872,8.583,8.265c5.128,0.482,12.428,0.763,19.769-0.315c6.583-0.968,11.167-7.657,10-14.836l-8.869-54.541
				H951.267z"/>
			
				<linearGradient id="SVGID_00000162327077372502754190000013613180981631825546_" gradientUnits="userSpaceOnUse" x1="899.6873" y1="2283.145" x2="859.0751" y2="3227.3828" gradientTransform="matrix(1 0 0 1 395.7825 0)">
				<stop  offset="0" style="stop-color:#4F52FF"/>
				<stop  offset="1" style="stop-color:#4042E2"/>
			</linearGradient>
			<path style="fill:url(#SVGID_00000162327077372502754190000013613180981631825546_);" d="M1215.646,3238.628
				c-33.273-0.932-50.484-4.85-59.381-8.487c-0.021,3.308-0.003,6.676,0.105,10.165c0.114,3.725,2.874,6.701,6.269,6.68
				l182.694-1.179c5.83-0.039,9.237-6.8,6.711-12.145C1328.09,3235.639,1267.082,3240.067,1215.646,3238.628z"/>
			
				<linearGradient id="SVGID_00000101081345157415256160000016360936420024198051_" gradientUnits="userSpaceOnUse" x1="854.6385" y1="2821.1523" x2="859.1878" y2="3321.5344" gradientTransform="matrix(1 0 0 1 395.7825 0)">
				<stop  offset="0" style="stop-color:#09005D"/>
				<stop  offset="1" style="stop-color:#1A0F91"/>
			</linearGradient>
			<path style="fill:url(#SVGID_00000101081345157415256160000016360936420024198051_);" d="M1352.045,3233.661
				c-0.221-0.466-0.41-0.939-0.724-1.378c-16.133-22.544-57.228-67.436-138.429-86.906l-38.954-1.23
				c0,0-17.345,30.149-17.672,85.994c8.897,3.637,26.107,7.555,59.381,8.487C1267.082,3240.067,1328.09,3235.639,1352.045,3233.661z
				"/>
			
				<linearGradient id="SVGID_00000109710342700343952240000014693261143691263644_" gradientUnits="userSpaceOnUse" x1="802.8265" y1="3057.3225" x2="776.847" y2="3284.0535" gradientTransform="matrix(1 0 0 1 395.7825 0)">
				<stop  offset="0" style="stop-color:#FEBBBA"/>
				<stop  offset="1" style="stop-color:#FF928E"/>
			</linearGradient>
			<path style="fill:url(#SVGID_00000109710342700343952240000014693261143691263644_);" d="M1166.715,3085.111
				c0.432,2.904,5.772,47.035,7.839,64.146c0.491,4.065,3.436,7.213,7.149,7.656c6.633,0.793,17.367,1.514,26.758-0.411
				c5.066-1.039,8.733-5.905,8.733-11.564v-69.273L1166.715,3085.111z"/>
			
				<linearGradient id="SVGID_00000069383838107603418700000009834018100219718812_" gradientUnits="userSpaceOnUse" x1="861.161" y1="3432.0857" x2="1135.2827" y2="2447.28">
				<stop  offset="0" style="stop-color:#09005D"/>
				<stop  offset="1" style="stop-color:#1A0F91"/>
			</linearGradient>
			<path style="fill:url(#SVGID_00000069383838107603418700000009834018100219718812_);" d="M1135.463,2279.74
				c0,0,93.954,357.064,92.256,806.393c-0.031,8.192-5.782,15.261-13.799,16.951c-11.813,2.488-29.178,5.442-43.554,5.039
				c-7.674-0.215-14.089-5.906-15.38-13.474c-13.174-77.258-88.776-512.484-131.851-583.142c0,0-28.34,387.633-19.282,588.739
				c0.225,5.001-3.437,9.337-8.409,9.913c-7.543,0.873-19.609,1.534-34.967-0.097c-5.829-0.619-10.532-5.026-11.365-10.828
				c-9.384-65.385-63.394-454.579-61.099-734.938c0.13-15.811,41.812-84.554,41.812-84.554H1135.463z"/>
			
				<linearGradient id="SVGID_00000093146879769633989530000018291486392155493552_" gradientUnits="userSpaceOnUse" x1="882.5327" y1="-311.7599" x2="726.8515" y2="26.678" gradientTransform="matrix(1 0 0 1 1163.5511 0)">
				<stop  offset="0" style="stop-color:#FF928E"/>
				<stop  offset="1" style="stop-color:#FE7062"/>
			</linearGradient>
			<path style="fill:url(#SVGID_00000093146879769633989530000018291486392155493552_);" d="M1266.132,1847.605
				c-15.249-19.114-28.608-39.603-39.782-60.714c-15.606-29.485-1.255,19.088-5.519-14.208
				c-116.87-84.337-292.855-41.649-360.927-33.074c-22.32,2.812-42.734,13.816-57.443,30.839
				c-58.332,67.504-186.333,252.319-35.672,438.549c19.279-10.701,46.677-27.865,65.284-47.725
				c-16.668-46.987-18.033-107.032,16.899-180.663c1.194,5.837,2.669,11.614,4.463,17.301
				c48.146,152.53,50.715,279.46,50.607,308.715c-0.015,3.972,2.37,7.548,6.059,9.027c63.366,25.392,185.343,10.279,226.288,4.177
				c7.507-1.12,12.558-8.109,11.521-15.628c-20.096-145.589,83.038-385.088,110.277-445.076
				C1260.146,1854.809,1262.855,1850.924,1266.132,1847.605z"/>
			
				<linearGradient id="SVGID_00000179643006739368380160000005227392850179902361_" gradientUnits="userSpaceOnUse" x1="648.5972" y1="1583.637" x2="549.402" y2="2012.302" gradientTransform="matrix(1 0 0 1 395.7825 0)">
				<stop  offset="0" style="stop-color:#FEBBBA"/>
				<stop  offset="1" style="stop-color:#FF928E"/>
			</linearGradient>
			<path style="fill:url(#SVGID_00000179643006739368380160000005227392850179902361_);" d="M969.425,1617.017l-12.212,124.772
				c0,0,70.191,21.141,121.242-14.88l-35.887-113.399L969.425,1617.017z"/>
			<g>
				
					<linearGradient id="SVGID_00000176014386527230458150000010245171142968722361_" gradientUnits="userSpaceOnUse" x1="-625.1697" y1="-398.7759" x2="-801.1552" y2="-165.9616" gradientTransform="matrix(0.6854 -0.7281 0.7281 0.6854 1746.7816 1318.7853)">
					<stop  offset="0" style="stop-color:#FEBBBA"/>
					<stop  offset="1" style="stop-color:#FF928E"/>
				</linearGradient>
				<path style="fill:url(#SVGID_00000176014386527230458150000010245171142968722361_);" d="M1050.871,1474.807
					c1.69,1.59,71.297,138.283,71.297,138.283l-78.894,38.086l-85.221-119.755
					C958.052,1531.421,1022.589,1448.185,1050.871,1474.807z"/>
				
					<linearGradient id="SVGID_00000151514243402636156390000006789993039910353060_" gradientUnits="userSpaceOnUse" x1="-759.5727" y1="-342.8657" x2="-549.3561" y2="-342.8657" gradientTransform="matrix(0.6854 -0.7281 0.7281 0.6854 1746.7816 1318.7853)">
					<stop  offset="0" style="stop-color:#09005D"/>
					<stop  offset="1" style="stop-color:#1A0F91"/>
				</linearGradient>
				<path style="fill:url(#SVGID_00000151514243402636156390000006789993039910353060_);" d="M992.958,1534.737
					c-1.407,3.641-1.06,7.705,0.948,11.053l39.347,65.593c0.598,0.995,1.308,1.894,2.158,2.685c4.683,4.36,20.71,17.04,33.099-0.225
					c10.561-14.715,20.468-28.093,31.085-33.61c6.199-3.223,13.829-0.649,16.977,5.589c6.482,12.849,19.04,39.042,26.929,63.878
					c1.977,6.226-1.237,12.909-7.29,15.361c-15.974,6.473-47.548,18.177-75.566,22.044c-4.602,0.636-9.159-1.306-11.898-5.059
					c-12.053-16.513-46.027-62.66-57.623-74.212c-10.772-10.732-30.655-6.685-39.613-4.111c-3.401,0.978-7.021,0.507-10.053-1.319
					c-9.09-5.475-24.952-19.108-10.441-42.191c3.608-5.739,1.769-13.385-3.896-17.109c-10.147-6.676-21.16-19.206-10.668-39.498
					c10.621-20.542,29.588-22.386,42.505-20.807c5.716,0.698,11.519-2.299,13.711-7.623c0.975-2.368,2.903-4.387,6.493-5.115
					c6.77-1.373,11.214-7.565,9.885-14.344c-2.278-11.626-0.563-26.726,17.997-36.931c34.041-18.715,63.859,11.781,71.439,37.523
					c7.583,25.744-30.477,43.937-54.418,46.973C1006.481,1505.512,996.838,1524.705,992.958,1534.737z"/>
				
					<linearGradient id="SVGID_00000130612433283486195970000003823646200878772897_" gradientUnits="userSpaceOnUse" x1="-882.918" y1="-214.4063" x2="-741.7647" y2="-359.2259" gradientTransform="matrix(0.6854 -0.7281 0.7281 0.6854 1746.7816 1318.7853)">
					<stop  offset="0" style="stop-color:#FEBBBA"/>
					<stop  offset="1" style="stop-color:#FF928E"/>
				</linearGradient>
				<path style="fill:url(#SVGID_00000130612433283486195970000003823646200878772897_);" d="M1005.903,1631.922
					c0,0-15.137-44.29-34.512-42.664c-19.376,1.626-34.626,20.927-10.613,42.626
					C990.647,1658.874,1005.903,1631.922,1005.903,1631.922z"/>
			</g>
			
				<linearGradient id="SVGID_00000099644814306109353430000001736278839771191721_" gradientUnits="userSpaceOnUse" x1="565.0599" y1="1664.3999" x2="359.7165" y2="2041.6591" gradientTransform="matrix(1 0 0 1 395.7825 0)">
				<stop  offset="0" style="stop-color:#E1473D"/>
				<stop  offset="1" style="stop-color:#E9605A"/>
			</linearGradient>
			<path style="fill:url(#SVGID_00000099644814306109353430000001736278839771191721_);" d="M842.581,1969.2
				c-25.539-69.893-16.274-154.292-16.177-155.136l7.036,0.803c-0.092,0.829-9.161,83.609,15.797,151.9L842.581,1969.2z"/>
			
				<linearGradient id="SVGID_00000148642028721796687000000012984792699623104420_" gradientUnits="userSpaceOnUse" x1="1018.3841" y1="2384.2864" x2="683.3306" y2="3216.8428">
				<stop  offset="0" style="stop-color:#09005D"/>
				<stop  offset="1" style="stop-color:#1A0F91"/>
			</linearGradient>
			<path style="fill:url(#SVGID_00000148642028721796687000000012984792699623104420_);" d="M1019.682,2502.404
				c-1.574,0-3.014-1.056-3.425-2.653c-7.792-30.051-66.135-63.074-66.723-63.405c-1.706-0.956-2.314-3.116-1.356-4.823
				c0.958-1.706,3.106-2.316,4.822-1.356c2.508,1.406,61.568,34.838,70.114,67.806c0.491,1.894-0.647,3.827-2.54,4.317
				C1020.276,2502.368,1019.975,2502.404,1019.682,2502.404z"/>
			<g>
				
					<linearGradient id="SVGID_00000093138382248750654230000015691019009684914109_" gradientUnits="userSpaceOnUse" x1="1085.222" y1="-218.5334" x2="929.5408" y2="119.9047" gradientTransform="matrix(1 0 0 1 1163.5511 0)">
					<stop  offset="0" style="stop-color:#FF928E"/>
					<stop  offset="1" style="stop-color:#FE7062"/>
				</linearGradient>
				<path style="fill:url(#SVGID_00000093138382248750654230000015691019009684914109_);" d="M1503.362,1886.846
					c-132.182,19.833-218.334-63.569-282.531-114.162c-84.759-66.796-150.716-34.299-150.716-34.299l90.39,172.51
					c134.985,127.271,273.386,99.008,360.638,57.765C1522.486,1935.339,1513.582,1907.454,1503.362,1886.846z"/>
				
					<linearGradient id="SVGID_00000040557677316661961180000009304886176261657765_" gradientUnits="userSpaceOnUse" x1="659.8885" y1="1573.1638" x2="52.8692" y2="2349.7917" gradientTransform="matrix(1 0 0 1 1163.5511 0)">
					<stop  offset="0" style="stop-color:#FEBBBA"/>
					<stop  offset="1" style="stop-color:#FF928E"/>
				</linearGradient>
				<path style="fill:url(#SVGID_00000040557677316661961180000009304886176261657765_);" d="M1689.142,1807.986l-43.835,23.588
					c-52.57,32.008-99.612,48.92-141.945,55.271c10.22,20.608,19.124,48.493,17.782,81.813
					c55.543-26.253,90.365-57.765,90.365-57.765C1710.808,1851.682,1689.142,1807.986,1689.142,1807.986z"/>
			</g>
			
				<linearGradient id="SVGID_00000018232474043723321100000015884421423734923670_" gradientUnits="userSpaceOnUse" x1="741.1274" y1="1636.6594" x2="134.1077" y2="2413.2876" gradientTransform="matrix(1 0 0 1 1163.5511 0)">
				<stop  offset="0" style="stop-color:#FEBBBA"/>
				<stop  offset="1" style="stop-color:#FF928E"/>
			</linearGradient>
			<path style="fill:url(#SVGID_00000018232474043723321100000015884421423734923670_);" d="M1818.276,1869.756
				c-2.83-9.408-9.785-17.018-18.9-20.683l-88.96-35.775c0,0-1.343-11.41,18.796-19.163c20.14-7.752,15.431-30.308,15.431-30.308
				s-27.513,12.551-67.794,32.457c-23.035,11.384-35.96,31.485-42.814,46.615l22.901,30.117
				c54.829,16.472,110.309,19.62,166.262,13.087L1818.276,1869.756z"/>
		</g>
		<g>
			
				<linearGradient id="SVGID_00000013904613475047300500000004546350244609396896_" gradientUnits="userSpaceOnUse" x1="5852.4365" y1="1517.309" x2="5485.1636" y2="1968.8191" gradientTransform="matrix(-0.9922 -0.1247 -0.1247 0.9922 8264.5254 715.4178)">
				<stop  offset="0" style="stop-color:#FEBBBA"/>
				<stop  offset="1" style="stop-color:#FF928E"/>
			</linearGradient>
			<path style="fill:url(#SVGID_00000013904613475047300500000004546350244609396896_);" d="M2303.525,1618.94
				c2.391-4.571,9.156-3.851,10.536,1.119c5.112,18.399,17.484,50.505,43.443,61.905c1.307,0.575,2.546,1.155,3.743,1.74
				c1.177-3.53,1.194-7.629-1.626-11.939c-8.071-12.335,6.499-29.179,6.499-29.179s0.965,14.836,12.242,24.177
				c9.714,8.047,14.377,25.953,7.74,40.642c-14.05,54.573-35.089,126.752,46.865,179.484
				c81.952,52.731,197.366-99.517,197.366-99.517l-57.282,181.594c0,0-88.416,65.245-191.259-26.5
				c-102.843-91.746-34.676-225.249-34.676-225.249S2268.674,1685.573,2303.525,1618.94z"/>
			
				<linearGradient id="SVGID_00000121982964962066300700000013493377646093711009_" gradientUnits="userSpaceOnUse" x1="-5367.7842" y1="2236.7522" x2="-5608.6226" y2="2522.925" gradientTransform="matrix(0.9602 0.2794 -0.2794 0.9602 8902.9297 797.6744)">
				<stop  offset="0" style="stop-color:#09005D"/>
				<stop  offset="1" style="stop-color:#1A0F91"/>
			</linearGradient>
			<path style="fill:url(#SVGID_00000121982964962066300700000013493377646093711009_);" d="M2644.684,1520.557
				c0,0-23.743-106.503,98.254-78.309c0,0,59.218-9.677,62.23,46.216c0,0,38.173,25.154,10.224,73.525
				c0,0,113.445-43.819,162.872,55.617c49.428,99.436,3.994,154.149-43.636,168.4c0,0,38.589,19.375,20.323,63.125
				c-18.265,43.748-110.767,74.588-165.41,21.385c0,0-155.484,20.547-152.372-89.277c0,0-72.317-46.7,3.639-137.462
				C2716.764,1553.013,2644.684,1520.557,2644.684,1520.557z"/>
			
				<linearGradient id="SVGID_00000163758882063666020840000011173578707790754477_" gradientUnits="userSpaceOnUse" x1="3262.5959" y1="1529.8334" x2="2947.8474" y2="1790.4315">
				<stop  offset="0" style="stop-color:#FF928E"/>
				<stop  offset="1" style="stop-color:#FE7062"/>
			</linearGradient>
			<path style="fill:url(#SVGID_00000163758882063666020840000011173578707790754477_);" d="M2637.984,1767.423
				c24.515-7.349,95.894-20.918,163.788,41.737c11.515,10.627,16.22,26.773,12.114,41.894
				c-18.236,67.136-66.35,265.486-24.162,351.309c0,0-74.345,81.955-155.451,15.901c0,0-36.39-158.602-84.054-228.229
				c-32.908-48.069,52.473-180.507,74.074-212.504C2627.565,1772.686,2632.386,1769.102,2637.984,1767.423z"/>
			
				<linearGradient id="SVGID_00000138540651208494356370000009825228485929330611_" gradientUnits="userSpaceOnUse" x1="-5716.5322" y1="2741.2959" x2="-5696.9106" y2="2601.9829" gradientTransform="matrix(0.9602 0.2794 -0.2794 0.9602 8902.9297 797.6744)">
				<stop  offset="0" style="stop-color:#FEBBBA"/>
				<stop  offset="1" style="stop-color:#FF928E"/>
			</linearGradient>
			<path style="fill:url(#SVGID_00000138540651208494356370000009825228485929330611_);" d="M2705.672,1634.042
				c0,0,36.256,102.552,38.983,147.794c0,0-40.07,18.221-77.828-12.533c0,0-3.961-102.432-9.686-120.774L2705.672,1634.042z"/>
			
				<linearGradient id="SVGID_00000119107311280921990330000012459902738517937340_" gradientUnits="userSpaceOnUse" x1="-5806.4893" y1="2442.7871" x2="-5623.0225" y2="2653.7249" gradientTransform="matrix(0.9602 0.2794 -0.2794 0.9602 8902.9297 797.6744)">
				<stop  offset="0" style="stop-color:#FEBBBA"/>
				<stop  offset="1" style="stop-color:#FF928E"/>
			</linearGradient>
			<path style="fill:url(#SVGID_00000119107311280921990330000012459902738517937340_);" d="M2655.312,1494.214
				c0,0-94.829,132.708-38.143,171.255c56.686,38.547,124.191-55.763,124.191-55.763s22.004-72.636-1.005-97.277
				C2717.348,1487.788,2655.312,1494.214,2655.312,1494.214z"/>
			
				<linearGradient id="SVGID_00000178189564313911103530000000624802975338587543_" gradientUnits="userSpaceOnUse" x1="-5483.1338" y1="2139.679" x2="-5723.9771" y2="2425.8584" gradientTransform="matrix(0.9602 0.2794 -0.2794 0.9602 8902.9297 797.6744)">
				<stop  offset="0" style="stop-color:#09005D"/>
				<stop  offset="1" style="stop-color:#1A0F91"/>
			</linearGradient>
			<path style="fill:url(#SVGID_00000178189564313911103530000000624802975338587543_);" d="M2699.205,1462.501
				c0,0-43.563,10.323-49.669,30.033c-6.105,19.712,61.778,37.99,80.799,38.884l15.326,79.54c0,0,45.306-74.824,27.359-118.038
				C2755.073,1449.704,2699.205,1462.501,2699.205,1462.501z"/>
			
				<linearGradient id="SVGID_00000002376068440931625700000017754627409016230282_" gradientUnits="userSpaceOnUse" x1="-5760.6509" y1="2402.9158" x2="-5577.1875" y2="2613.8496" gradientTransform="matrix(0.9602 0.2794 -0.2794 0.9602 8902.9297 797.6744)">
				<stop  offset="0" style="stop-color:#FEBBBA"/>
				<stop  offset="1" style="stop-color:#FF928E"/>
			</linearGradient>
			<path style="fill:url(#SVGID_00000002376068440931625700000017754627409016230282_);" d="M2722.978,1599.942
				c0,0,36.91-42.746,51.592-14.879c14.682,27.867-33.223,48.79-49.807,35.107L2722.978,1599.942z"/>
			
				<linearGradient id="SVGID_00000118380734525960586900000013235689686338086295_" gradientUnits="userSpaceOnUse" x1="4914.5171" y1="3578.4038" x2="5352.228" y2="2805.7507" gradientTransform="matrix(-1 -0.0095 -0.0095 1 8008.4194 56.9446)">
				<stop  offset="0" style="stop-color:#FEBBBA"/>
				<stop  offset="1" style="stop-color:#FF928E"/>
			</linearGradient>
			<path style="fill:url(#SVGID_00000118380734525960586900000013235689686338086295_);" d="M2539.591,2551.264
				c0.278,7.2-12.363,64.312-19.243,94.775c-2.769,12.257-0.841,25.084,5.4,35.991l238.265,401.012
				c2.883,4.851,4.981,10.105,6.256,15.601c4.366,18.819,13.423,64.938,8.694,106.896l-12.325,25.6l53.308-12.104l11.598-143.156
				l-15.091-9.202c-13.037-7.948-23.189-19.833-29.001-33.953c-21.545-52.333-75.046-185.549-88.838-250.472
				c-15.673-73.784-97.608-133.714-97.608-133.714l14.395-34.031L2539.591,2551.264z"/>
			
				<linearGradient id="SVGID_00000076567302036034370340000000939240303429722532_" gradientUnits="userSpaceOnUse" x1="5099.1973" y1="3147.6597" x2="5227.1411" y2="3147.6597" gradientTransform="matrix(-1 -0.0095 -0.0095 1 8008.4194 56.9446)">
				<stop  offset="0" style="stop-color:#09005D"/>
				<stop  offset="1" style="stop-color:#1A0F91"/>
			</linearGradient>
			<path style="fill:url(#SVGID_00000076567302036034370340000000939240303429722532_);" d="M2879.19,3169.775
				c0,0-28.787-45.639-32.174-63.405c-3.387-17.766-12.816-49.137-30.564-39.693c0,0-8.363,86.3-5.48,120.021
				c2.882,33.721-38.12,32.636-38.12,32.636s-11.301,1.588-19.577,9.862c-5.714,5.714-1.627,15.626,6.436,16.145
				c13.418,0.865,34.731,1.091,57.11-3.233c7.822-1.51,13.619-8.166,14.093-16.118l5.908-99.324l36.312,45.851L2879.19,3169.775z"/>
			
				<linearGradient id="SVGID_00000057843841608420143120000003352922364420393139_" gradientUnits="userSpaceOnUse" x1="2679.8501" y1="2914.8342" x2="2974.291" y2="2569.6274">
				<stop  offset="0" style="stop-color:#FEBBBA"/>
				<stop  offset="1" style="stop-color:#FF928E"/>
			</linearGradient>
			<path style="fill:url(#SVGID_00000057843841608420143120000003352922364420393139_);" d="M2681.927,2615.141
				c0,0,8.404,358.704,9.541,409.648c1.138,50.946-8.044,163.845-59.115,197.591l22.224,16.452c0,0,27.772-23.604,54.905-69.032
				c30.479-51.034,39.696-60.358,39.696-60.358l-10.114-20.713c-4.429-9.068-5.73-19.326-3.691-29.209
				c11.021-53.416,47.839-231.082,57.882-269.343c11.855-45.165,12.698-105.479-28.547-155.965
				C2723.465,2583.726,2681.927,2615.141,2681.927,2615.141z"/>
			
				<linearGradient id="SVGID_00000108280863955353600250000000067152316618608521_" gradientUnits="userSpaceOnUse" x1="5217.8179" y1="3170.7676" x2="5370.3394" y2="3170.7676" gradientTransform="matrix(-1 -0.0095 -0.0095 1 8008.4194 56.9446)">
				<stop  offset="0" style="stop-color:#09005D"/>
				<stop  offset="1" style="stop-color:#1A0F91"/>
			</linearGradient>
			<path style="fill:url(#SVGID_00000108280863955353600250000000067152316618608521_);" d="M2729.088,3255
				c1.584,0.014,2.931-1.12,3.154-2.689c1.7-11.958,8.774-59.901,14.565-72.316c6.633-14.217,28.296-74.057-0.012-79.137
				c0,0-70.374,102.818-83.883,116.679c-13.509,13.864-30.559,4.843-30.559,4.843s-13.162,3.889-23.088,16.573
				c-4.724,6.037-0.324,14.899,7.342,14.972l47.402,0.453c13.766,0.131,26.148-8.231,31.265-21.012
				c8.344-20.841,22.677-51.41,39.382-64.971l-8.68,83.116C2725.782,3253.365,2727.225,3254.983,2729.088,3255L2729.088,3255z"/>
			
				<linearGradient id="SVGID_00000101818905763405247000000005159812718894906541_" gradientUnits="userSpaceOnUse" x1="3525.6616" y1="1812.3699" x2="3099.251" y2="2132.178">
				<stop  offset="0" style="stop-color:#09005D"/>
				<stop  offset="1" style="stop-color:#1A0F91"/>
			</linearGradient>
			<path style="fill:url(#SVGID_00000101818905763405247000000005159812718894906541_);" d="M2623.054,2179.588
				c0,0,10.681,34.047-5.729,90.125l-101.798,355.484c-1.599,5.586,1.416,11.432,6.884,13.395
				c30.449,10.928,130.548,41.817,267.191,32.398c6.879-0.475,12.648-5.345,14.144-12.077
				c9.004-40.526,39.723-178.798,46.048-207.209c24.101-108.257,51.011-225.002-67.372-295.595
				C2727.863,2179.475,2676.977,2193.249,2623.054,2179.588z"/>
			
				<linearGradient id="SVGID_00000014594849070880634130000013612910003279245725_" gradientUnits="userSpaceOnUse" x1="5102.9639" y1="2169.6331" x2="5829.0732" y2="1339.0709" gradientTransform="matrix(-0.9922 -0.1247 -0.1247 0.9922 8264.5254 715.4178)">
				<stop  offset="0" style="stop-color:#FEBBBA"/>
				<stop  offset="1" style="stop-color:#FF928E"/>
			</linearGradient>
			<path style="fill:url(#SVGID_00000014594849070880634130000013612910003279245725_);" d="M2811.487,1822.556
				c0,0,115.824,96.255,144.567,227.785c28.744,131.529-169.248,145.508-169.248,145.508s-26.878-30.014-58.788-19.31
				c-31.909,10.705-2.471-52.382,34.865-52.217c37.335,0.166,20.039,29.687,72.855,5.763c51.449-23.304,83.25-95.38-48.02-204.637
				c-7.61-6.333-13.681-14.407-17.337-23.608C2744.879,1837.646,2765.106,1795.566,2811.487,1822.556z"/>
		</g>
	</g>
</g>
</svg>
