<?xml version="1.0" encoding="utf-8"?>
<!-- Generator: Adobe Illustrator 27.5.0, SVG Export Plug-In . SVG Version: 6.00 Build 0)  -->
<svg version="1.1" xmlns="http://www.w3.org/2000/svg" xmlns:xlink="http://www.w3.org/1999/xlink" x="0px" y="0px"
	 viewBox="0 0 3710 3710" style="enable-background:new 0 0 3710 3710;" xml:space="preserve">
<g id="Background">
	<g>
		<g>
			<rect style="fill:#FFFFFF;" width="3710" height="3710"/>
		</g>
	</g>
</g>
<g id="Illustration">
	<g>
		<path style="fill:#F4F7FA;" d="M1054.404,517.777c-96.384,140.604,16.628,368.558-126.389,474.304
			c-139.217,102.936-310.241-65.79-441.443,22.817c-194.632,131.443-159.089,732.9,125.474,1106.598
			c85.578,112.383,157.083,156.111,188.752,283.211c68.003,272.917-170.995,435.265-125.513,570.246
			C777.691,3278.88,2352.63,3533.91,2984.566,2620.51c295.14-426.596,339.299-1042.603,75.601-1510.464
			C2583.668,264.629,1270.674,202.287,1054.404,517.777z"/>
		<g>
			<g>
				<defs>
					<path id="SVGID_1_" d="M1439.729,2548.258c-76.886-119.62-15.504-326.583,64.974-449.57
						c93.959-143.591,176.239-115.089,240.623-232.448c119.876-218.508-116.186-406.916-12.772-636.856
						c84.541-187.977,274.383-133.391,358.531-345.818c60.721-153.285-8.941-255.384,87.88-371.387
						c8.277-9.917,99.075-115.585,215.166-101.872c117.171,13.842,191.58,141.204,217.857,230.167
						c48.574,164.446-60.058,222.219-74.013,438.291c-18.997,294.174,171.116,361.218,112.356,574.934
						c-48.521,176.48-189.351,171.47-239.264,368.215c-46.348,182.697,58.244,253.407,15.285,373.331
						C2327.525,2671.129,1596.554,2792.251,1439.729,2548.258z"/>
				</defs>
				
					<linearGradient id="SVGID_00000162323534604896593020000012096461826974676613_" gradientUnits="userSpaceOnUse" x1="1751.1527" y1="643.7408" x2="2083.4834" y2="1812.6265">
					<stop  offset="0" style="stop-color:#FF9085"/>
					<stop  offset="1" style="stop-color:#FB6FBB"/>
				</linearGradient>
				
					<use xlink:href="#SVGID_1_"  style="overflow:visible;fill:url(#SVGID_00000162323534604896593020000012096461826974676613_);"/>
				<clipPath id="SVGID_00000178914591294722038420000000293034805656001717_">
					<use xlink:href="#SVGID_1_"  style="overflow:visible;"/>
				</clipPath>
				<g style="clip-path:url(#SVGID_00000178914591294722038420000000293034805656001717_);">
					<path style="opacity:0.7;fill:#FFFFFF;" d="M1544.865,2736.856c-0.95,0-1.783-0.698-1.926-1.664
						c-0.157-1.065,0.582-2.056,1.644-2.216c124.237-18.314,239.186-61.817,341.647-129.291
						c97.057-63.917,197.418-130.006,238.43-245.856c31.019-87.619,9.407-150.335-17.953-229.734
						c-26.618-77.255-59.751-173.4-49.749-322.806c5.708-85.308,12.811-191.472,82.306-294.489
						c40.481-60.007,81.064-86.656,116.868-110.17c37.547-24.658,67.205-44.136,82.96-93.694
						c25.689-80.798,3.887-148.446-21.354-226.777c-15.581-48.346-31.693-98.34-39.473-158.156
						c-21.891-168.359,50.457-353.328,215.038-549.766c0.691-0.827,1.926-0.929,2.747-0.242c0.824,0.691,0.933,1.92,0.242,2.747
						c-163.853,195.567-235.905,379.524-214.16,546.757c7.733,59.465,23.79,109.285,39.317,157.465
						c25.448,78.964,47.427,147.163,21.36,229.152c-16.177,50.875-47.856,71.68-84.539,95.774
						c-35.495,23.31-75.731,49.735-115.772,109.088c-68.907,102.148-75.972,207.731-81.653,292.569
						c-9.948,148.619,23.042,244.352,49.548,321.274c27.609,80.121,49.418,143.405,17.943,232.307
						c-41.448,117.086-142.367,183.542-239.962,247.81c-102.941,67.794-218.418,111.494-343.22,129.897
						C1545.056,2736.849,1544.961,2736.856,1544.865,2736.856z"/>
					<path style="opacity:0.7;fill:#FFFFFF;" d="M2111.618,1564.435c-0.718,0-1.409-0.402-1.75-1.089
						c-109.942-223.669-132.974-399.363-132.936-507.362c0.044-117.178,26.53-182.348,26.799-182.994
						c0.408-0.994,1.562-1.467,2.546-1.052c0.997,0.412,1.467,1.552,1.055,2.546c-0.265,0.64-26.499,65.282-26.499,181.773
						c-0.003,107.539,22.99,282.509,132.535,505.368c0.477,0.967,0.078,2.134-0.888,2.61
						C2112.2,1564.37,2111.907,1564.435,2111.618,1564.435z"/>
					<path style="opacity:0.7;fill:#FFFFFF;" d="M2060.045,1928.654c-0.834,0-1.603-0.538-1.862-1.375
						c-0.32-1.028,0.255-2.12,1.287-2.437c126.401-39.147,234.22-97.897,320.457-174.615
						c68.965-61.358,124.373-134.284,164.677-216.76c68.621-140.417,69.608-261.332,69.608-262.537
						c0.003-1.076,0.875-1.947,1.95-1.947h0.003c1.076,0.003,1.947,0.878,1.947,1.954c-0.003,1.215-0.994,123.029-70.006,264.242
						c-40.529,82.932-96.24,156.267-165.589,217.962c-86.656,77.092-194.958,136.112-321.897,175.425
						C2060.43,1928.627,2060.236,1928.654,2060.045,1928.654z"/>
					<path style="opacity:0.7;fill:#FFFFFF;" d="M1995.178,2538.648c-0.425,0-0.851-0.139-1.212-0.422
						c-98.857-78.334-177.709-165.504-234.363-259.089c-45.344-74.9-76.646-154.048-93.044-235.251
						c-27.929-138.324-2.481-236.02-2.219-236.99c0.276-1.042,1.351-1.651,2.386-1.378c1.042,0.279,1.658,1.348,1.378,2.386
						c-0.259,0.963-25.485,97.945,2.321,235.428c25.662,126.878,103.044,315.202,325.964,491.839c0.844,0.67,0.984,1.896,0.316,2.74
						C1996.322,2538.393,1995.754,2538.648,1995.178,2538.648z"/>
					<path style="opacity:0.7;fill:#FFFFFF;" d="M2282.156,894.581c-0.728,0-1.429-0.412-1.763-1.116
						c-0.459-0.973-0.044-2.137,0.929-2.597c90.879-42.911,165.575-100.511,222.022-171.195
						c45.154-56.549,78.807-121.558,100.018-193.232c36.145-122.113,23.423-222.563,23.29-223.564
						c-0.139-1.065,0.609-2.046,1.678-2.188c1.065-0.129,2.042,0.613,2.188,1.678c0.133,1.004,12.964,102.141-23.372,225.027
						c-21.343,72.181-55.221,137.667-100.692,194.631c-56.828,71.19-132.014,129.186-223.465,172.369
						C2282.721,894.52,2282.435,894.581,2282.156,894.581z"/>
				</g>
			</g>
		</g>
		<g>
			<g>
				
					<linearGradient id="SVGID_00000128470443309919404520000008846890374121973132_" gradientUnits="userSpaceOnUse" x1="-214.5198" y1="-353.4733" x2="508.3676" y2="4267.8555" gradientTransform="matrix(-0.8298 -0.558 -0.558 0.8298 2982.3694 1284.397)">
					<stop  offset="0" style="stop-color:#FFC444"/>
					<stop  offset="0.9964" style="stop-color:#F36F56"/>
				</linearGradient>
				<path style="fill:url(#SVGID_00000128470443309919404520000008846890374121973132_);" d="M1993.902,3052.854
					c-26.363-2.247-81.735-30.374-93.146-43.657c-75.941-88.399-228.876-244.67-226.993-367.854
					c0.322-21.039,93.253-44.605,105.556-64.439c55.603-29.406,76.716-36.159,115.843-90.084
					c115.513-159.199-175.811-435.982,144.069-551.675c234.308-84.742,438.513-11.651,396.888-379.312
					c-41.624-367.662,221.52-1052.404,622.132-812.133c229.915,137.892,16.716,461.378,141.786,687.679
					c118.849,215.044,33.555,400.064-194.206,542.154c-227.759,142.09-98.6,238.065-21.634,443.992
					c92.454,247.363-291.592,308.644-471.31,321.811C2368.166,2749.94,2006.807,2874.578,1993.902,3052.854z"/>
				<g>
					<defs>
						<path id="SVGID_00000175315376386677473580000006228386592713095316_" d="M1993.902,3052.854
							c-26.363-2.247-81.735-30.374-93.146-43.657c-75.941-88.399-228.876-244.67-226.993-367.854
							c0.322-21.039,93.253-44.605,105.556-64.439c55.603-29.406,76.716-36.159,115.843-90.084
							c115.513-159.199-175.811-435.982,144.069-551.675c234.308-84.742,438.513-11.651,396.888-379.312
							c-41.624-367.662,221.52-1052.404,622.132-812.133c229.915,137.892,16.716,461.378,141.786,687.679
							c118.849,215.044,33.555,400.064-194.206,542.154c-227.759,142.09-98.6,238.065-21.634,443.992
							c92.454,247.363-291.592,308.644-471.31,321.811C2368.166,2749.94,2006.807,2874.578,1993.902,3052.854z"/>
					</defs>
					
						<linearGradient id="SVGID_00000151529354060267372250000003310217162676787844_" gradientUnits="userSpaceOnUse" x1="1673.746" y1="1873.2968" x2="3253.5627" y2="1873.2968">
						<stop  offset="0" style="stop-color:#AA80F9"/>
						<stop  offset="0.9964" style="stop-color:#6165D7"/>
					</linearGradient>
					
						<use xlink:href="#SVGID_00000175315376386677473580000006228386592713095316_"  style="overflow:visible;fill:url(#SVGID_00000151529354060267372250000003310217162676787844_);"/>
					<clipPath id="SVGID_00000088849643339317361100000001812049781545075088_">
						<use xlink:href="#SVGID_00000175315376386677473580000006228386592713095316_"  style="overflow:visible;"/>
					</clipPath>
					<g style="opacity:0.7;clip-path:url(#SVGID_00000088849643339317361100000001812049781545075088_);">
						<g>
							<path style="fill:#FCFDFE;" d="M1790.998,2835.713l-2.681-4.945c761.764-413.205,1195.825-1233.59,1161.112-2194.527
								l5.625-0.206c16.45,455.416-76.433,895.952-268.61,1273.982C2484.41,2307.446,2174.769,2627.545,1790.998,2835.713z"/>
							<path style="fill:#FCFDFE;" d="M3034.42,2515.932c-228.225-64.018-604.661-49.63-839.137,32.078l-1.85-5.313
								c235.398-82.028,613.343-96.463,842.505-32.184L3034.42,2515.932z"/>
							<path style="fill:#FCFDFE;" d="M1939.607,2752.888l-3.947-4.011c91.953-90.571,134.585-224.151,126.712-397.024
								c-5.772-126.759-38.06-271.301-95.971-429.62l5.286-1.931c58.105,158.855,90.509,303.963,96.307,431.293
								C2075.943,2526.132,2032.748,2661.147,1939.607,2752.888z"/>
							<path style="fill:#FCFDFE;" d="M2711.637,1855.301l-4.15-3.801c164.546-179.637,414.292-236.654,594.83-252.857l0.502,5.607
								C3123.272,1620.361,2874.962,1676.995,2711.637,1855.301z"/>
							<path style="fill:#FCFDFE;" d="M2894.261,1328.399l-5.625-0.163c7.907-274.323-159.942-508.441-260.696-623.579l4.234-3.707
								C2733.472,816.711,2902.222,1052.155,2894.261,1328.399z"/>
						</g>
					</g>
				</g>
			</g>
		</g>
		<g>
			
				<linearGradient id="SVGID_00000111895605073872853850000005390298817596007315_" gradientUnits="userSpaceOnUse" x1="3194.866" y1="2354.1516" x2="5595.3633" y2="2354.1516" gradientTransform="matrix(-1 0 0.2009 1.0457 6102.3833 -147.4554)">
				<stop  offset="0" style="stop-color:#FFC444"/>
				<stop  offset="0.9964" style="stop-color:#F36F56"/>
			</linearGradient>
			<path style="fill:url(#SVGID_00000111895605073872853850000005390298817596007315_);" d="M1838.088,1405.223l1392.181,127.269
				c-84.11,51.96-214.278,156.107-292.63,367.104c-154.261,415.414,17.129,802.343-168.271,1081.756
				c-49.328,74.344-155.693,208.983-320.016,241.986l-1329.561-181.271c435.367-126.224,553.453-364.874,576.163-568.341
				c22.789-204.192-42.053-448.423,35.621-777.07C1763.338,1562.26,1806.689,1465.563,1838.088,1405.223z"/>
			<path style="fill:#FFFFFF;" d="M3058.169,1178.654c-408.815-25.669-817.629-51.338-1226.444-77.007
				c-55.038,46.636-132.344,129.543-182.714,272.954c-115.926,330.056,19.107,656.489-19.911,977.302
				c-24.883,204.586-127.524,460.892-495.181,632.211c438.992,57.447,877.984,114.893,1316.977,172.339
				c90.704-34.746,211.6-106.967,281.555-275.009c74.166-178.16,22.238-298.679,47.79-858.699
				c17.982-394.128,53.351-549.575,127.023-674.193C2958.273,1262.268,3015.765,1210.003,3058.169,1178.654z"/>
			<g>
				<path style="fill:#D8DEE8;" d="M1718.035,2321.737c-0.261,3.23-0.535,6.461-0.825,9.694c-0.274,3.042,1.921,5.746,4.958,6.079
					l958.934,105.323c3.34,0.367,6.249-2.242,6.219-5.602c-0.03-3.252-0.058-6.534-0.085-9.843
					c-0.023-2.842-2.168-5.243-4.994-5.553l-958.017-105.223C1721.083,2316.267,1718.289,2318.585,1718.035,2321.737z"/>
				<path style="fill:#D8DEE8;" d="M1721.87,2218.521c0.01,3.264,0.01,6.529-0.001,9.795c-0.01,2.875,2.145,5.293,5.004,5.597
					l953.932,101.595c3.305,0.352,6.186-2.209,6.2-5.533c0.013-3.252,0.029-6.529,0.047-9.826c0.015-2.879-2.15-5.319-5.012-5.624
					l-953.976-101.601C1724.741,2212.57,1721.859,2215.18,1721.87,2218.521z"/>
				<path style="fill:#D8DEE8;" d="M1704.335,2423.899c-0.606,3.197-1.228,6.385-1.866,9.564c-0.647,3.224,1.586,6.304,4.853,6.673
					l975.073,110.257c3.352,0.379,6.279-2.263,6.237-5.636c-0.04-3.246-0.081-6.525-0.124-9.847
					c-0.036-2.825-2.17-5.197-4.978-5.514l-973.071-110.031C1707.544,2419.034,1704.881,2421.015,1704.335,2423.899z"/>
				<path style="fill:#D8DEE8;" d="M1863.816,2963.235l-442.177-56.634c-1.899-0.243-3.811,0.503-5.052,2.035
					c-2.374,2.929-5.312,5.235-8.624,7.036c-5.088,2.766-3.466,9.901,1.809,10.577l433.943,55.579
					C1850.417,2975.634,1857.119,2969.439,1863.816,2963.235z"/>
				<path style="fill:#D8DEE8;" d="M2472.683,3041.22l-499.434-63.968c-6.47,6.263-12.985,12.479-19.532,18.665l502.254,64.329
					c1.103,0.141,2.232-0.045,3.23-0.536c5.257-2.583,10.421-5.257,15.497-8.016
					C2479.456,3049.106,2478.057,3041.907,2472.683,3041.22z"/>
				<path style="fill:#D8DEE8;" d="M1718.277,2114.573c0.205,3.296,0.402,6.594,0.592,9.894c0.158,2.741,2.273,4.964,5.005,5.246
					l958.161,98.764c3.265,0.336,6.117-2.175,6.179-5.457c0.062-3.249,0.125-6.517,0.192-9.803c0.059-2.917-2.127-5.409-5.03-5.708
					l-958.948-98.845C1720.986,2108.308,1718.062,2111.12,1718.277,2114.573z"/>
				<path style="fill:#D8DEE8;" d="M1585.819,2721.236c-1.989,3.025-4.003,6.036-6.037,9.035c-2.36,3.479-0.237,8.214,3.936,8.725
					l1056.835,129.26c2.421,0.296,4.766-0.995,5.784-3.211c1.428-3.111,2.832-6.25,4.209-9.421c1.5-3.453-0.71-7.381-4.448-7.838
					l-1054.941-129.029C1589.048,2718.499,1586.986,2719.461,1585.819,2721.236z"/>
				<path style="fill:#D8DEE8;" d="M1640.213,2623.979c-1.452,3.094-2.922,6.177-4.412,9.25c-1.684,3.474,0.526,7.565,4.36,8.022
					l1033.271,123.279c2.944,0.351,5.675-1.641,6.191-4.561c0.575-3.25,1.117-6.525,1.627-9.828
					c0.484-3.126-1.746-6.032-4.887-6.407l-1030.428-122.941C1643.537,2620.508,1641.238,2621.794,1640.213,2623.979z"/>
				<path style="fill:#D8DEE8;" d="M1678.982,2524.744c-0.999,3.149-2.015,6.289-3.049,9.419c-1.116,3.377,1.127,6.921,4.66,7.332
					l1001.867,116.452c3.279,0.381,6.184-2.131,6.255-5.431c0.07-3.247,0.13-6.537,0.18-9.869c0.044-2.877-2.104-5.333-4.962-5.665
					l-998.975-116.116C1682.292,2520.555,1679.793,2522.186,1678.982,2524.744z"/>
				<path style="fill:#D8DEE8;" d="M1709.919,2010.278c0.31,3.304,0.618,6.61,0.923,9.918c0.246,2.673,2.35,4.799,5.021,5.065
					l968.977,96.471c3.227,0.321,6.051-2.141,6.158-5.382c0.108-3.245,0.218-6.505,0.331-9.782c0.102-2.955-2.105-5.496-5.046-5.789
					l-970.233-96.595C1712.54,2003.835,1709.589,2006.767,1709.919,2010.278z"/>
				<path style="fill:#D8DEE8;" d="M1738.836,1389.666c-2.493-0.19-4.818,1.288-5.688,3.632c-1.184,3.19-2.351,6.396-3.487,9.63
					c-0.008,0.023-0.016,0.046-0.024,0.069c-1.213,3.458,1.231,7.119,4.884,7.397l1018.637,77.592
					c2.668,0.203,5.101-1.529,5.818-4.107c0.892-3.206,1.794-6.386,2.707-9.539c0.991-3.422-1.397-6.869-4.949-7.14
					L1738.836,1389.666z"/>
				<path style="fill:#D8DEE8;" d="M1704.386,1493.924c-0.676,3.242-1.328,6.485-1.959,9.729c-0.639,3.282,1.74,6.389,5.072,6.657
					l1022.002,82.131c2.871,0.231,5.444-1.772,5.96-4.606c0.589-3.233,1.185-6.44,1.787-9.623c0.62-3.277-1.73-6.348-5.055-6.616
					l-1021.847-82.119C1707.528,1489.252,1704.963,1491.157,1704.386,1493.924z"/>
				<path style="fill:#D8DEE8;" d="M1782.291,1306.408l1007.718,76.607c2.375,0.181,4.595-1.175,5.546-3.359
					c11.453-26.281,24.11-50.903,38.125-74.607c7.062-11.945,14.411-23.572,22.023-34.903c2.417-3.598,0.068-8.459-4.256-8.75
					l-991.652-66.827c-1.637-0.11-3.248,0.493-4.4,1.661c-29.55,29.945-55.445,63.94-77.547,101.783
					C1775.766,1301.576,1778.177,1306.096,1782.291,1306.408z"/>
				<path style="fill:#D8DEE8;" d="M1699.716,1905.943c0.32,3.304,0.642,6.611,0.966,9.921c0.261,2.671,2.38,4.79,5.051,5.047
					l983.397,94.344c3.19,0.306,5.986-2.133,6.136-5.334c0.153-3.273,0.308-6.53,0.463-9.773c0.144-2.99-2.085-5.554-5.065-5.839
					l-984.824-94.481C1702.328,1899.491,1699.377,1902.432,1699.716,1905.943z"/>
				<path style="fill:#D8DEE8;" d="M1690.785,1801.897c0.23,3.294,0.467,6.59,0.71,9.888c0.202,2.738,2.361,4.939,5.095,5.191
					l998.314,92.058c3.149,0.29,5.913-2.093,6.11-5.249c0.205-3.268,0.411-6.52,0.619-9.754c0.195-3.03-2.056-5.651-5.08-5.93
					l-999.64-92.18C1693.468,1795.603,1690.544,1798.444,1690.785,1801.897z"/>
				<path style="fill:#D8DEE8;" d="M1686.365,1698.378c0.035,3.289,0.082,6.58,0.14,9.873c0.051,2.868,2.266,5.237,5.123,5.49
					l1011.107,89.361c3.089,0.273,5.811-2.031,6.078-5.121c0.282-3.26,0.567-6.501,0.854-9.723c0.276-3.087-2.002-5.797-5.089-6.069
					l-1012.101-89.45C1689.175,1692.447,1686.33,1695.064,1686.365,1698.378z"/>
				<path style="fill:#D8DEE8;" d="M1689.805,1595.658c-0.269,3.268-0.519,6.538-0.754,9.81c-0.22,3.061,2.076,5.732,5.135,5.99
					l1019.494,86.079c3.002,0.253,5.664-1.932,6.033-4.921c0.402-3.25,0.808-6.475,1.219-9.68c0.405-3.167-1.906-6.016-5.087-6.284
					l-1019.963-86.117C1692.791,1590.274,1690.059,1592.568,1689.805,1595.658z"/>
			</g>
			<path style="fill:#FC79AB;" d="M2034.384,3050.414l177.065-109.668c58.851-36.781,117.879-73.393,175.57-111.719
				c14.317-9.632,28.817-19.333,42.115-29.7c1.627-1.298,3.234-2.614,4.672-3.913c0.713-0.644,1.393-1.296,1.915-1.858
				c0.234-0.259,0.466-0.532,0.517-0.615c0.091-0.105-0.073,0.073-0.076,0.145c-0.119,0.2-0.211,0.422-0.272,0.647
				c-0.089,0.237-0.319,1.188-0.248,1.766c-0.067,1.031,0.53,2.633,1.176,3.446c0.824,1.074,1.698,1.545,1.955,1.686
				c0.584,0.278,0.87,0.344,0.952,0.379c0.154,0.05,0.419,0.075,0.378,0.08c0.073,0.019,0.127,0.006-0.007,0.015
				c-0.056-0.004-0.191,0.002-0.358,0.016c-0.628,0.045-1.498,0.156-2.404,0.335c-1.808,0.333-3.77,0.839-5.712,1.39
				c-7.832,2.265-15.702,5.406-23.309,8.917c-15.213,7.088-29.722,15.912-42.214,26.701c-12.418,10.742-22.89,23.807-27.53,38.61
				c-4.905,14.814-2.693,30.531,4.443,44.865c7.066,14.458,17.878,27.603,28.649,41.335c5.395,6.885,10.84,13.986,15.698,21.903
				c4.836,7.844,9.184,16.796,10.815,27.08c0.86,5.121,0.664,10.52-0.187,15.727c-0.563,2.579-1.112,5.173-2.09,7.583
				c-0.794,2.509-1.945,4.796-3.115,7.078c-4.76,9.106-11.676,16.246-18.999,22.247c-14.84,11.908-31.788,19.516-49.049,24.98
				c-17.303,5.473-35.151,8.629-53.1,9.973c-35.85,2.622-72.569-2.205-106.251-16.374c-16.837-7.164-32.424-16.758-46.669-27.84
				c-14.247-11.114-27.264-23.743-38.623-37.988c-5.654-7.147-10.941-14.662-15.425-22.893c-4.455-8.225-8.396-17.032-10.086-27.363
				c-0.797-5.146-1.008-10.801,0.498-16.729c0.412-1.479,0.788-2.951,1.485-4.402l0.971-2.167c0.385-0.749,0.932-1.57,1.419-2.333
				c2.048-3.064,5.016-5.707,8.012-7.268c6.111-3.332,11.709-3.818,16.769-4.12c5.09-0.22,9.841,0.164,14.433,0.713
				c18.303,2.277,35.082,6.837,51.969,11.177c16.789,4.574,33.461,9.162,50.224,13.393c16.748,4.276,33.579,8.134,50.532,11.549
				c16.979,3.221,34.051,6.021,51.216,8.118c34.326,4.174,68.89,6.485,103.454,6.71c34.556,0.313,69.125-1.431,103.389-5.549
				l0.019-0.003c4.943-0.593,9.431,2.932,10.026,7.875c0.593,4.943-2.932,9.43-7.875,10.024c-0.348,0.042-0.703,0.063-1.045,0.064
				c-35.037,0.115-69.956-0.218-104.805-1.909c-17.416-0.94-34.827-1.825-52.187-3.421c-8.689-0.661-17.36-1.531-26.038-2.318
				c-8.656-0.984-17.334-1.799-25.97-2.954c-34.58-4.21-69.187-8.799-103.571-14.975c-17.177-3.075-34.282-6.52-51.287-9.896
				c-8.491-1.725-16.929-3.551-25.331-5.13c-8.383-1.565-16.723-3.197-24.79-4.013c-4.027-0.444-7.967-0.605-11.551-0.483
				c-3.543,0.119-6.839,0.763-8.352,1.714c-2.207,0.442-4.194,6.662-2.926,13.437c1.06,6.853,4.131,14.233,7.945,21.209
				c3.801,7.033,8.513,13.788,13.613,20.254c10.256,12.927,22.295,24.68,35.398,34.933c13.124,10.25,27.344,19.01,42.457,25.475
				c30.394,12.903,64.39,17.429,97.689,15.368c16.662-1.097,33.26-3.896,49.105-8.762c15.803-4.805,31.106-11.706,43.472-21.493
				c12.388-9.661,20.929-23.029,18.618-36.762c-1.019-6.921-4.159-14.047-8.365-20.945c-4.162-6.925-9.212-13.694-14.429-20.535
				c-10.398-13.678-21.81-27.631-29.875-44.557c-4.048-8.397-6.915-17.751-7.869-27.448c-1-9.705,0.223-19.642,3.272-28.764
				c3.002-9.175,7.74-17.557,13.368-24.993c5.63-7.462,12.147-14.033,19.104-19.908c13.959-11.738,29.546-20.897,45.859-28.265
				c8.197-3.654,16.53-6.885,25.408-9.339c2.241-0.602,4.492-1.164,6.956-1.59c1.227-0.217,2.511-0.397,4.05-0.483
				c0.375-0.022,0.782-0.037,1.268-0.022c0.408-0.005,1.001,0.038,1.615,0.118c0.231,0.018,0.757,0.128,1.175,0.237
				c0.351,0.084,0.893,0.231,1.713,0.649c0.523,0.231,1.596,0.88,2.595,2.169c0.855,0.993,1.444,2.914,1.442,4.191
				c0.021,0.842-0.205,2.074-0.394,2.563c-0.166,0.476-0.365,0.946-0.587,1.397c-0.297,0.527-0.704,1.195-0.959,1.508
				c-0.587,0.795-1.083,1.331-1.582,1.87c-0.97,1.015-1.877,1.845-2.781,2.645c-1.802,1.587-3.576,2.998-5.358,4.383
				c-14.228,10.803-28.75,20.222-43.345,29.789c-29.208,18.955-58.722,37.279-88.302,55.503
				c-29.596,18.192-59.255,36.262-89.043,54.116c-59.583,35.688-119.159,71.368-179.25,106.182
				c-1.328,0.775-3.031,0.325-3.806-1.002C2032.685,3052.88,2033.112,3051.207,2034.384,3050.414z"/>
		</g>
		<g>
			<g>
				<g>
					
						<linearGradient id="SVGID_00000012438638410195943190000002560435788506425989_" gradientUnits="userSpaceOnUse" x1="913.9007" y1="815.4156" x2="2962.5508" y2="2120.5295">
						<stop  offset="0" style="stop-color:#AB316D"/>
						<stop  offset="1" style="stop-color:#792D3D"/>
					</linearGradient>
					<path style="fill:url(#SVGID_00000012438638410195943190000002560435788506425989_);" d="M1511.883,1254.242
						c36.127,18.342,81.516,1.5,101.375-37.618c19.862-39.118,6.675-85.7-29.452-104.042c-1.87-0.951-3.781-1.749-5.697-2.513
						c6.712-21.646,11.772-43.46,15.166-65.284c2.071-0.005,4.149-0.04,6.26-0.229c41.217-3.675,73.93-41.549,73.068-84.599
						c-0.864-43.049-34.977-74.97-76.195-71.295c-2.155,0.193-4.271,0.533-6.375,0.907c-4.305-21.333-10.204-42.174-17.646-62.343
						c1.896-1.109,3.782-2.256,5.626-3.547c35.263-24.705,46.538-73.467,25.182-108.911c-21.356-35.444-67.257-44.148-102.52-19.443
						c-1.807,1.266-3.507,2.633-5.187,4.022c-13.928-15.397-29.204-29.667-45.732-42.689c1.162-1.906,2.3-3.836,3.329-5.862
						c19.862-39.118,45.815-81.849,9.405-99.623c-84.228-41.118-120.371-5.919-140.233,33.199c-1.029,2.027-1.916,4.084-2.769,6.146
						c-20.267-5.658-40.8-9.571-61.45-11.73c0.129-2.174,0.229-4.353,0.186-6.56c-0.864-43.047,11.91-66.343-29.464-67.148
						c-90.221-1.754-120.661,37.406-119.798,80.452c0.045,2.251,0.233,4.451,0.455,6.636c-20.675,5.893-40.98,13.428-60.745,22.542
						c-0.94-1.92-1.914-3.829-3.03-5.683c-21.356-35.444-67.256-44.148-102.52-19.441c-35.265,24.707-46.538,73.467-25.182,108.911
						c1.093,1.816,2.293,3.514,3.509,5.189c-15.617,15.618-30.241,32.577-43.755,50.769c-1.747-1.097-3.52-2.168-5.392-3.118
						c-36.127-18.342-81.515-1.5-101.375,37.618c-19.862,39.118-6.675,85.7,29.452,104.042c1.872,0.951,3.783,1.75,5.699,2.514
						c-6.711,21.645-11.774,43.46-15.167,65.283c-2.071,0.006-4.149,0.04-6.259,0.227c-41.22,3.676-73.932,41.55-73.069,84.601
						c0.863,43.049,34.977,74.967,76.195,71.293c2.153-0.192,4.27-0.53,6.373-0.905c4.306,21.334,10.204,42.173,17.646,62.344
						c-1.895,1.109-3.782,2.256-5.625,3.547c-35.264,24.705-46.538,73.467-25.182,108.911
						c21.357,35.445,92.06,51.911,127.323,27.206c1.807-1.266-21.296-10.396-19.616-11.783
						c13.929,15.398,29.205,29.666,45.732,42.689c-1.16,1.905-2.299,3.835-3.327,5.862c-19.862,39.118-6.675,85.699,29.451,104.041
						c36.127,18.343,81.515,1.501,101.376-37.617c1.03-2.027,1.916-4.084,2.768-6.146c20.267,5.659,40.8,9.572,61.451,11.73
						c-0.129,2.175-0.229,4.354-0.185,6.561c0.863,43.047,34.977,74.967,76.194,71.293c41.218-3.674,73.932-41.551,73.067-84.599
						c-0.045-2.25-0.233-4.449-0.456-6.635c20.676-5.893,40.982-13.428,60.745-22.541c0.939,1.92,1.914,3.828,3.03,5.68
						c21.356,35.443,67.256,44.15,102.52,19.443c35.265-24.707,46.539-73.467,25.183-108.913c-1.094-1.814-2.293-3.512-3.51-5.187
						c15.616-15.618,30.241-32.576,43.755-50.769C1508.24,1252.221,1510.012,1253.292,1511.883,1254.242z M1061.524,1259.957
						c-131.169-66.598-179.046-235.724-106.933-377.753c72.111-142.03,236.903-203.18,368.072-136.582
						c131.17,66.597,179.046,235.723,106.935,377.752C1357.485,1265.404,1192.694,1326.554,1061.524,1259.957z"/>
					
						<linearGradient id="SVGID_00000025401267812548421310000000107236933358511285_" gradientUnits="userSpaceOnUse" x1="925.6228" y1="797.015" x2="2974.2747" y2="2102.1301">
						<stop  offset="0" style="stop-color:#AB316D"/>
						<stop  offset="1" style="stop-color:#792D3D"/>
					</linearGradient>
					<path style="fill:url(#SVGID_00000025401267812548421310000000107236933358511285_);" d="M1599.536,1044.557
						c41.217-3.676,73.93-41.551,73.068-84.6c-0.864-43.049-34.977-74.969-76.195-71.294c-2.154,0.192-4.271,0.533-6.375,0.906
						c-4.303-21.335-10.204-42.172-17.646-62.343c1.896-1.108,3.782-2.256,5.626-3.548c35.263-24.705,78.89-84.401,54.012-117.466
						c-47.22-62.757-96.087-35.593-131.35-10.887c-1.807,1.266-3.507,2.633-5.186,4.019c-13.929-15.397-29.205-29.665-45.734-42.688
						c1.162-1.905,2.3-3.835,3.329-5.861c10.81-21.29,11.764-44.763,4.624-64.718c-34.06,59.948-67.662,120.149-100.661,180.677
						c104.642,76.68,137.957,227.791,72.549,356.621c-55.427,109.171-165.609,170.471-273.192,162.79
						c-4.799,12.445-9.51,24.959-14.65,37.284c-13.945,33.45-29.788,66.21-45.651,98.927c9.977,1.881,19.997,3.362,30.045,4.413
						c-0.129,2.176-0.229,4.356-0.185,6.561c0.863,43.049,27,79.624,101.7,75.662c41.323-2.192,48.425-45.918,47.561-88.967
						c-0.045-2.249-0.232-4.448-0.455-6.634c20.676-5.893,40.982-13.429,60.745-22.542c0.939,1.921,1.914,3.828,3.031,5.68
						c21.357,35.445,95.443,50.505,130.707,25.798c35.265-24.707,18.351-79.821-3.005-115.266c-1.094-1.816-2.293-3.513-3.51-5.189
						c15.616-15.618,30.242-32.576,43.755-50.768c1.748,1.097,3.52,2.168,5.391,3.116c36.127,18.344,81.516,1.5,101.377-37.618
						c19.86-39.116,6.675-85.7-29.453-104.041c-1.871-0.951-3.782-1.749-5.698-2.512c6.712-21.646,11.772-43.462,15.166-65.283
						C1595.347,1044.779,1597.425,1044.744,1599.536,1044.557z"/>
					
						<linearGradient id="SVGID_00000005970413700804434920000004577318924354047897_" gradientUnits="userSpaceOnUse" x1="944.1142" y1="580.3777" x2="2126.8762" y2="2340.4004">
						<stop  offset="0" style="stop-color:#FF9085"/>
						<stop  offset="1" style="stop-color:#FB6FBB"/>
					</linearGradient>
					<path style="fill:url(#SVGID_00000005970413700804434920000004577318924354047897_);" d="M1638.392,1048.975
						c41.218-3.675,73.931-41.55,73.068-84.6c-0.862-43.05-34.975-74.968-76.193-71.295c-2.154,0.194-4.27,0.532-6.374,0.907
						c-4.305-21.335-10.204-42.173-17.647-62.344c1.896-1.108,3.783-2.254,5.626-3.547c35.263-24.704,46.537-73.467,25.181-108.911
						s-67.255-44.15-102.52-19.444c-1.807,1.268-3.507,2.634-5.188,4.022c-13.928-15.398-29.204-29.666-45.732-42.688
						c1.161-1.906,2.299-3.836,3.328-5.863c19.862-39.117,6.675-85.698-29.451-104.041c-36.128-18.342-81.515-1.501-101.377,37.617
						c-1.027,2.027-1.915,4.084-2.769,6.146c-20.266-5.657-40.799-9.571-61.448-11.73c0.128-2.175,0.227-4.354,0.184-6.56
						c-0.863-43.048-34.977-74.968-76.195-71.293c-41.216,3.673-73.93,41.55-73.067,84.598c0.046,2.249,0.234,4.449,0.455,6.634
						c-20.674,5.894-40.979,13.428-60.745,22.542c-0.939-1.921-1.914-3.827-3.029-5.682
						c-21.356-35.444-67.257-44.148-102.521-19.441c-35.265,24.707-46.537,73.467-25.181,108.911
						c1.095,1.815,2.292,3.514,3.509,5.189c-15.615,15.618-30.242,32.576-43.755,50.769c-1.747-1.097-3.52-2.167-5.391-3.117
						c-36.128-18.342-81.515-1.5-101.375,37.617c-19.862,39.118-6.676,85.7,29.451,104.042c1.873,0.95,3.783,1.749,5.699,2.512
						c-6.712,21.647-11.773,43.461-15.166,65.284c-2.07,0.007-4.15,0.042-6.261,0.227c-41.216,3.676-73.931,41.552-73.068,84.602
						c0.863,43.05,34.978,74.966,76.195,71.293c2.154-0.191,4.27-0.531,6.373-0.906c4.307,21.334,10.206,42.174,17.647,62.344
						c-1.896,1.108-3.782,2.254-5.625,3.547c-35.265,24.706-46.537,73.467-25.183,108.911c21.356,35.445,67.257,44.15,102.52,19.444
						c1.807-1.268,3.507-2.634,5.187-4.022c13.93,15.398,29.204,29.668,45.732,42.69c-1.161,1.906-2.298,3.834-3.328,5.862
						c-19.862,39.118-6.675,85.698,29.452,104.042c36.128,18.342,81.515,1.501,101.375-37.619c1.029-2.026,1.915-4.084,2.769-6.146
						c20.266,5.659,40.8,9.571,61.45,11.731c-0.128,2.174-0.229,4.354-0.186,6.561c0.865,43.046,34.977,74.968,76.195,71.293
						c41.218-3.675,73.931-41.552,73.068-84.598c-0.045-2.251-0.232-4.451-0.456-6.636c20.675-5.892,40.979-13.428,60.744-22.541
						c0.939,1.92,1.916,3.829,3.03,5.679c21.356,35.445,67.257,44.151,102.52,19.446c35.265-24.708,46.539-73.467,25.184-108.914
						c-1.095-1.814-2.294-3.512-3.512-5.188c15.616-15.618,30.242-32.576,43.757-50.769c1.748,1.097,3.518,2.167,5.391,3.117
						c36.126,18.344,81.514,1.501,101.377-37.617c19.86-39.118,6.674-85.7-29.454-104.042c-1.871-0.95-3.782-1.75-5.699-2.512
						c6.713-21.646,11.774-43.461,15.166-65.284C1634.203,1049.199,1636.281,1049.162,1638.392,1048.975z M1485.285,1136.337
						c-77.222,152.096-253.69,217.578-394.155,146.261c-140.465-71.317-191.735-252.428-114.512-404.522
						c77.223-152.095,253.69-217.578,394.155-146.261C1511.238,803.134,1562.506,984.243,1485.285,1136.337z"/>
				</g>
			</g>
		</g>
		<g>
			<g>
				<g>
					<g>
						
							<linearGradient id="SVGID_00000001661692249327012010000012932808115328758970_" gradientUnits="userSpaceOnUse" x1="2937.9438" y1="2046.6235" x2="4041.3589" y2="2046.6235" gradientTransform="matrix(0.9998 0.0199 -0.0199 0.9998 -2497.696 -41.8984)">
							<stop  offset="0" style="stop-color:#444B8C"/>
							<stop  offset="0.9964" style="stop-color:#26264F"/>
						</linearGradient>
						<path style="fill:url(#SVGID_00000001661692249327012010000012932808115328758970_);" d="M1324.824,1176.268l160.331,1744.122
							c2.387,25.971-14.147,48.679-36.802,50.468l-781.19,70.772c-47.621,1.808-73.319-25.938-75.905-53.422l-173.715-1846.16
							c-2.609-27.733,21.181-52.278,69.288-51.219l791.834,36.109C1301.672,1127.875,1322.417,1150.075,1324.824,1176.268z"/>
						<path style="fill:#26264F;" d="M1360.341,1174.045l161.006,1753.11c2.397,26.105-14.202,48.932-36.948,50.736L674.5,3042.105
							c-25.285,2.005-48.158-18.954-50.755-46.582L449.252,1139.578c-2.62-27.881,16.315-49.832,42.007-48.782l822.733,33.658
							C1337.094,1125.4,1357.922,1147.715,1360.341,1174.045z"/>
						
							<linearGradient id="SVGID_00000099637734445420725840000014655309489265443235_" gradientUnits="userSpaceOnUse" x1="-1407.4965" y1="2090.3982" x2="-777.9439" y2="5411.2808" gradientTransform="matrix(-1 0 0 1 -421.0958 0)">
							<stop  offset="0.0036" style="stop-color:#E38DDD"/>
							<stop  offset="1" style="stop-color:#9571F6"/>
						</linearGradient>
						<path style="fill:url(#SVGID_00000099637734445420725840000014655309489265443235_);" d="M1343.29,1270.778l149.33,1624.872
							c2.242,24.392-13.298,45.683-34.586,47.32l-761.76,58.566c-23.514,1.807-44.781-17.758-47.198-43.486L488.023,1243.795
							c-2.438-25.944,15.146-46.5,39.009-45.679l772.93,26.607C1321.557,1225.467,1341.03,1246.192,1343.29,1270.778z"/>
					</g>
					<path style="fill:#FFFFFF;" d="M933.578,1163.313c0.871,9.378-5.25,16.732-13.68,16.425
						c-8.439-0.308-15.994-8.174-16.867-17.57c-0.874-9.397,5.268-16.751,13.709-16.425
						C925.172,1146.068,932.707,1153.934,933.578,1163.313z"/>
				</g>
			</g>
			<g style="opacity:0.3;">
				<path style="fill:#F4F7FA;" d="M858.594,2019.047c-80.492-257.24,59.609-386.834-19.732-625.095
					c-43.166-129.636-129.578-226.207-224.639-298.125l-122.963-5.031c-25.693-1.051-44.627,20.901-42.008,48.781l174.495,1855.945
					c2.596,27.628,25.469,48.586,50.753,46.582l699.231-55.44c-2.196-193.788-47.714-331.707-98.335-429.751
					C1136.289,2287.498,941.94,2285.414,858.594,2019.047z"/>
			</g>
		</g>
		<g>
			<defs>
				<path id="SVGID_00000132788569958325895920000008535636951404107957_" d="M2033.068,1222.763l998.902,1627.005
					c433.601,150.473-1552.647,91.566-1573.935,93.203l-761.76,58.566c-23.514,1.807-44.781-17.758-47.198-43.486L368.618,1501.813
					c-2.438-25.944,134.551-304.518,158.414-303.696l772.93,26.607C1321.557,1225.467,2030.807,1198.176,2033.068,1222.763z"/>
			</defs>
			<clipPath id="SVGID_00000146484339773830726050000010276560136849360819_">
				<use xlink:href="#SVGID_00000132788569958325895920000008535636951404107957_"  style="overflow:visible;"/>
			</clipPath>
			<g style="clip-path:url(#SVGID_00000146484339773830726050000010276560136849360819_);">
				
					<linearGradient id="SVGID_00000070825195904586921790000012104944173039125903_" gradientUnits="userSpaceOnUse" x1="183.8569" y1="3314.4871" x2="218.496" y2="3755.3462" gradientTransform="matrix(-1 0 0 1 1523.1162 0)">
					<stop  offset="0" style="stop-color:#311944"/>
					<stop  offset="1" style="stop-color:#A03976"/>
				</linearGradient>
				<path style="fill:url(#SVGID_00000070825195904586921790000012104944173039125903_);" d="M1274.795,3534.76
					c0,0,129.895,63.246,132.016,73.342c2.121,10.096-83.536-3.385-118.504-1.929c-34.968,1.458-63.733-9.615-60.568-25.483
					c3.167-15.867,15.406-55.777,15.406-55.777L1274.795,3534.76z"/>
				
					<linearGradient id="SVGID_00000013908949646884637900000016095795990890861706_" gradientUnits="userSpaceOnUse" x1="268.7672" y1="3560.2847" x2="262.4802" y2="3104.4539" gradientTransform="matrix(-1 0 0 1 1523.1162 0)">
					<stop  offset="0" style="stop-color:#FFC444"/>
					<stop  offset="0.9964" style="stop-color:#F36F56"/>
				</linearGradient>
				<path style="fill:url(#SVGID_00000013908949646884637900000016095795990890861706_);" d="M1279.547,3483.43l-7.901,62.654
					c0,0-20.565,7.842-34.378-1.429l-5.893-68.719L1279.547,3483.43z"/>
				
					<linearGradient id="SVGID_00000014597657931313977770000015332280226846287254_" gradientUnits="userSpaceOnUse" x1="793.4749" y1="3262.9697" x2="828.1718" y2="3704.5645" gradientTransform="matrix(-1 0 0 1 1523.1162 0)">
					<stop  offset="0" style="stop-color:#311944"/>
					<stop  offset="1" style="stop-color:#A03976"/>
				</linearGradient>
				<path style="fill:url(#SVGID_00000014597657931313977770000015332280226846287254_);" d="M667.825,3484.933l-15.109,25.985
					c-4.225,7.267-5.484,16.016-3.458,24.299c5.284,21.609,15.836,63.719,20.437,74.702c6.266,14.957,90.326,23.842,90.326,23.842
					s7.494-11.301-9.958-24.951c-17.452-13.648-28.669-15.796-34.829-35.939c-6.159-20.141-10.268-77.114-10.268-77.114
					L667.825,3484.933z"/>
				
					<linearGradient id="SVGID_00000104696351209154690570000003660300590445465002_" gradientUnits="userSpaceOnUse" x1="827.6385" y1="3552.0264" x2="821.3521" y2="3096.2319" gradientTransform="matrix(-1 0 0 1 1523.1162 0)">
					<stop  offset="0" style="stop-color:#FFC444"/>
					<stop  offset="0.9964" style="stop-color:#F36F56"/>
				</linearGradient>
				<path style="fill:url(#SVGID_00000104696351209154690570000003660300590445465002_);" d="M730.714,3418.897
					c-5.518,4.714-32.516,92.504-32.516,92.504s-8.739,11.972-25.341-5.697c-16.599-17.669-7.512-7.926-7.512-7.926l3.112-86.344
					L730.714,3418.897z"/>
				
					<linearGradient id="SVGID_00000159451250831061414620000011035786396977902475_" gradientUnits="userSpaceOnUse" x1="167.1814" y1="2822.0657" x2="481.6784" y2="2822.0657" gradientTransform="matrix(-1 0 0 1 1523.1162 0)">
					<stop  offset="0" style="stop-color:#444B8C"/>
					<stop  offset="0.9964" style="stop-color:#3E4177"/>
				</linearGradient>
				<path style="fill:url(#SVGID_00000159451250831061414620000011035786396977902475_);" d="M1351.016,2224.647
					c6.852,186.9,7.132,389.956-2.906,606.884c-11.302,244.277-34.014,470.049-62.637,674.712c-10.64,0.364-21.822,0.424-33.5,0.074
					c-7.887-0.236-15.529-0.647-22.915-1.194c-14.854-42.437-32.411-98.244-48.132-164.904
					c-16.529-70.094-26.499-132.967-33.603-193.089c-25.015-211.691,4.3-230.159-16.001-387.041
					c-17.977-138.942-43.545-144.368-73.56-341.635c-32.565-214.042-8.322-246.153,3.468-257.753
					C1111.417,2111.318,1229.305,2144.937,1351.016,2224.647z"/>
				
					<linearGradient id="SVGID_00000120554663296673945130000006793513441371305389_" gradientUnits="userSpaceOnUse" x1="167.1807" y1="2822.0798" x2="481.6758" y2="2822.0798" gradientTransform="matrix(-1 0 0 1 1523.1162 0)">
					<stop  offset="0" style="stop-color:#444B8C"/>
					<stop  offset="0.9964" style="stop-color:#3E4177"/>
				</linearGradient>
				<path style="opacity:0.3;fill:url(#SVGID_00000120554663296673945130000006793513441371305389_);" d="M1061.23,2160.703
					c47.867-47.104,157.339-18.589,272.959,53.302c-133.012,153.959-147.512,253.835-131.567,318.637
					c18.022,73.242,72.811,94.337,72.604,174.422c-0.258,98.42-83.166,124.491-81.404,228.635
					c1.165,68.866,37.597,68.151,46.202,153.209c10.179,100.639-37.418,135.318-22.001,209.779
					c6.632,32.035,25.562,73.893,79.475,117.014c-3.888,30.578-7.872,60.846-12.026,90.545c-10.636,0.358-21.821,0.422-33.498,0.068
					c-7.887-0.233-15.531-0.643-22.913-1.192c-14.855-42.437-32.412-98.242-48.134-164.902
					c-16.529-70.096-26.499-132.967-33.603-193.091c-25.013-211.689,4.3-230.159-16.001-387.041
					c-17.977-138.942-43.545-144.372-73.558-341.637C1025.199,2204.41,1049.441,2172.299,1061.23,2160.703z"/>
				
					<linearGradient id="SVGID_00000107564783017392006400000016770206670381507259_" gradientUnits="userSpaceOnUse" x1="254.4907" y1="2788.853" x2="887.6066" y2="2788.853" gradientTransform="matrix(-1 0 0 1 1523.1162 0)">
					<stop  offset="0" style="stop-color:#444B8C"/>
					<stop  offset="0.9964" style="stop-color:#3E4177"/>
				</linearGradient>
				<path style="fill:url(#SVGID_00000107564783017392006400000016770206670381507259_);" d="M1268.625,2221.509
					c-114.53,179.533-238.06,402.969-348.534,670.413c-83.487,202.11-144.036,391.872-188.49,560.99
					c-6.016,2.983-20.206,8.936-38.338,6.368c-24.733-3.504-39.557-20.418-43.431-25.138
					c-18.094-121.236-16.099-223.911-9.959-298.015c3.932-47.445,10.892-126.457,39.12-223.999
					c31.618-109.259,53.355-115.4,94.605-230.992c42.814-119.98,32.444-149.922,73.445-300.071
					c16.842-61.68,45.039-153.471,91.563-263.267C1048.614,2152.366,1158.62,2186.939,1268.625,2221.509z"/>
				
					<linearGradient id="SVGID_00000145043316400646914220000001658695291091222937_" gradientUnits="userSpaceOnUse" x1="185.164" y1="2221.0249" x2="423.2636" y2="1557.0936" gradientTransform="matrix(-1 0 0 1 1523.1162 0)">
					<stop  offset="0" style="stop-color:#AA80F9"/>
					<stop  offset="0.9964" style="stop-color:#6165D7"/>
				</linearGradient>
				<path style="fill:url(#SVGID_00000145043316400646914220000001658695291091222937_);" d="M1812.132,2408.684
					c-22.028,36.697-112.575,73.077-164.352,53.246c-121.054-46.374-198.527-211.312-205.346-342.563
					c-1.464-28.183-0.536-55.732-5.866-56.569c-13.41-2.114-47.85,168.281-74.881,312.744c-21.73,8.522-54.677,17.571-92.328,10.962
					c-61.623-10.814-68.957-51.829-137.875-78.572c-40.211-15.602-79.609-15.637-158.409-15.711
					c-88.954-0.083-91.405,11.67-108.538,3.143c-31.706-15.777-69.055-78.782,119.551-861.484
					c12.396-51.444,33.292-133.698,91.685-157.642c47.826-19.611,109.314,16.882,230.335,90.664
					c60.473,36.871,128.052,78.598,207.346,152.791c54.01,50.539,91.611,85.72,122.591,134.551
					c124.921,196.911-19.452,361.017,93.871,612.837C1768.883,2353.665,1835.198,2370.258,1812.132,2408.684z"/>
				
					<linearGradient id="SVGID_00000007389538330665451670000007064097132664304561_" gradientUnits="userSpaceOnUse" x1="257.0697" y1="2265.9175" x2="501.0234" y2="1585.6626" gradientTransform="matrix(-1 0 0 1 1523.1162 0)">
					<stop  offset="0" style="stop-color:#AA80F9"/>
					<stop  offset="0.9964" style="stop-color:#6165D7"/>
				</linearGradient>
				<path style="opacity:0.3;fill:url(#SVGID_00000007389538330665451670000007064097132664304561_);" d="M1002.411,2188.51
					c35.392-19.737,26.443-61.174,57.203-84.854c45.852-35.301,101.783,29.043,162.809,18.857
					c133.185-22.232,146.667-375.392,233.213-377.13c40.727-0.82,80.003,76.691,92.405,136.71
					c21.699,105.021-61.389,151.874-48.402,282.848c2.329,23.491,4.779,19.722,61.604,193.279
					c7.56,23.092,14.489,44.453,20.753,63.897c-82.816-69.933-134.075-197.182-139.56-302.749
					c-1.464-28.183-0.536-55.732-5.866-56.569c-13.41-2.114-47.85,168.281-74.881,312.744c-21.73,8.522-54.677,17.571-92.328,10.962
					c-61.623-10.814-68.957-51.829-137.875-78.572c-40.211-15.602-79.609-15.637-158.409-15.711
					c-88.954-0.083-91.405,11.67-108.538,3.143c-12.975-6.458-26.873-20.904-25.864-89.278
					c26.153-17.429,48.607-22.456,66.933-22.29C943.187,2184.141,970.65,2206.22,1002.411,2188.51z"/>
				
					<linearGradient id="SVGID_00000169560523696299703540000016078559066279705762_" gradientUnits="userSpaceOnUse" x1="1339.2412" y1="1491.5077" x2="1614.4452" y2="1289.8239">
					<stop  offset="0" style="stop-color:#FFC444"/>
					<stop  offset="0.9964" style="stop-color:#F36F56"/>
				</linearGradient>
				<path style="fill:url(#SVGID_00000169560523696299703540000016078559066279705762_);" d="M1461.511,1331.414
					c0,0-32.523,39.561-67.479,60.063c-31.59,18.528-101.228-12.681-117.34-16.347c-16.112-3.666,3.221,42.816,33.619,74.851
					c30.397,32.033,130.874,105.3,157.975,106.526c27.098,1.228-4.365-24.198-21.005-53.805
					c-16.642-29.604,6.81-90.813,27.815-109.673C1496.1,1374.167,1461.511,1331.414,1461.511,1331.414z"/>
				<g>
					<path style="fill:#D8DEE8;" d="M492.276,1510.719l495.092,355.603c14.031,10.078,36.44,0.612,50.05-21.142l0,0
						c13.61-21.753,13.27-47.558-0.762-57.637l-495.093-355.602c-14.031-10.078-36.438-0.612-50.049,21.141l0,0
						C477.904,1474.836,478.246,1500.64,492.276,1510.719z"/>
					<path style="fill:#D8DEE8;" d="M412.841,1339.486l98.893,71.032l60.258-96.312l-98.894-71.032
						c-7.008-5.034-16.779-2.577-21.824,5.487l-41.988,67.111C404.241,1323.835,405.833,1334.453,412.841,1339.486z"/>
					<path style="fill:#26264F;" d="M2423.438,2743.722l46.166,33.159c5.193,3.73,13.487,0.226,18.524-7.825l0,0
						c5.038-8.053,4.912-17.603-0.282-21.334l-46.166-33.159L2423.438,2743.722z"/>
					<path style="fill:#D8DEE8;" d="M2459.218,2748.29L2459.218,2748.29c-9.236,14.762-23.892,22.687-35.084,18.969l-230.996-76.744
						l115.118-183.995l154.011,199.791C2469.728,2715.99,2468.455,2733.526,2459.218,2748.29z"/>
					<path style="fill:#FFFFFF;" d="M2454.586,2726.436L2454.586,2726.436c-2.53,4.043-11.402,2.724-21.24-3.159l-187.282-146.613
						l31.53-50.395l166.197,180.315C2452.606,2714.099,2457.116,2722.392,2454.586,2726.436z"/>
					
						<linearGradient id="SVGID_00000060003213412804958330000001883296601123207595_" gradientUnits="userSpaceOnUse" x1="126.1474" y1="826.6877" x2="312.0788" y2="1519.1232" gradientTransform="matrix(-0.5749 -0.3835 -0.5549 0.8319 2232.2373 1015.7)">
						<stop  offset="0" style="stop-color:#311944"/>
						<stop  offset="1" style="stop-color:#A03976"/>
					</linearGradient>
					<path style="fill:url(#SVGID_00000060003213412804958330000001883296601123207595_);" d="M476.706,1452.76l1721.081,1241.097
						c32.772,23.538,147.89-160.459,115.119-183.997L591.825,1268.763c-19.55-14.041-50.77-0.853-69.733,29.455l-46.448,74.239
						C456.681,1402.766,457.157,1438.718,476.706,1452.76z"/>
					<polygon style="fill:#FFFFFF;" points="918.624,1615.699 2271.149,2592.077 2298.279,2548.714 945.755,1572.335 					"/>
					
						<linearGradient id="SVGID_00000081614331185274932600000000131222762076842934_" gradientUnits="userSpaceOnUse" x1="1086.2767" y1="1245.5964" x2="1123.5549" y2="1245.5964" gradientTransform="matrix(-0.5749 -0.3835 -0.5549 0.8319 2232.2373 1015.7)">
						<stop  offset="0" style="stop-color:#AA80F9"/>
						<stop  offset="0.9964" style="stop-color:#6165D7"/>
					</linearGradient>
					<polygon style="fill:url(#SVGID_00000081614331185274932600000000131222762076842934_);" points="840.166,1714.878 
						855.937,1726.204 971.512,1541.476 955.743,1530.149 					"/>
					<polygon style="fill:#FFFFFF;" points="478.72,1455.267 494.489,1466.592 610.065,1281.865 594.295,1270.538 					"/>
					
						<linearGradient id="SVGID_00000122712848305033990240000009341464141635592847_" gradientUnits="userSpaceOnUse" x1="126.0831" y1="826.4406" x2="312.066" y2="1519.0682" gradientTransform="matrix(-0.5749 -0.3835 -0.5549 0.8319 2232.2373 1015.7)">
						<stop  offset="0" style="stop-color:#311944"/>
						<stop  offset="1" style="stop-color:#A03976"/>
					</linearGradient>
					<path style="opacity:0.3;fill:url(#SVGID_00000122712848305033990240000009341464141635592847_);" d="M591.825,1268.763
						l823.765,596.592c26.295,192.474,85.148,252.207,141.335,265.183c39.021,9.008,100.121,0.901,159.668,51.631
						c57.506,48.991,39.839,90.046,91.71,120.708c76.9,45.456,149.817-24.637,194.6,32.577
						c24.082,30.767,5.105,53.73,27.552,116.302c8.323,23.212,42.994,119.85,135.969,132.687
						c54.079,7.464,108.203-16.147,149.751-42.369c-14.85,58.886-92.426,170.429-118.388,151.782L476.706,1452.76
						c-19.549-14.041-20.025-49.992-1.061-80.302l46.448-74.239C541.055,1267.91,572.275,1254.722,591.825,1268.763z"/>
				</g>
				
					<linearGradient id="SVGID_00000052783978113028161010000000846937140336356007_" gradientUnits="userSpaceOnUse" x1="1711.9943" y1="2284.2019" x2="2570.0168" y2="3235.3115">
					<stop  offset="0" style="stop-color:#FFC444"/>
					<stop  offset="0.9964" style="stop-color:#F36F56"/>
				</linearGradient>
				<path style="fill:url(#SVGID_00000052783978113028161010000000846937140336356007_);" d="M1799.912,2405.833
					c0,0,46.733,23.914,79.805,28.922c33.072,5.008,40.26,33.31,31.08,43.711c-9.179,10.399-61.811-0.99-79.412-11.597
					C1813.784,2456.262,1799.912,2405.833,1799.912,2405.833z"/>
				
					<linearGradient id="SVGID_00000037691954715734960640000014994987032316050322_" gradientUnits="userSpaceOnUse" x1="955.2183" y1="1186.0936" x2="871.7634" y2="2235.2507">
					<stop  offset="0" style="stop-color:#FFC444"/>
					<stop  offset="0.9964" style="stop-color:#F36F56"/>
				</linearGradient>
				<path style="fill:url(#SVGID_00000037691954715734960640000014994987032316050322_);" d="M835.178,1806.285
					c0,0,36.663-5.892,54.586,12.964c17.923,18.857,64.345,46.048,85.137,36.576l-73.323-52.926l-66.4-24.898V1806.285z"/>
				
					<linearGradient id="SVGID_00000071534431581727817100000010590607707292472205_" gradientUnits="userSpaceOnUse" x1="324.5852" y1="2303.9011" x2="568.26" y2="1624.4238" gradientTransform="matrix(-1 0 0 1 1523.1162 0)">
					<stop  offset="0" style="stop-color:#AA80F9"/>
					<stop  offset="0.9964" style="stop-color:#6165D7"/>
				</linearGradient>
				<path style="fill:url(#SVGID_00000071534431581727817100000010590607707292472205_);" d="M852.803,1830.237
					c-26.72-0.977-135.742-8.201-217.078-100.568c-82.367-93.536-113.996-249.006-52.803-355.134
					c48.858-84.74,138.833-106.693,231.004-129.188c120.221-29.339,214.633-7.052,252.357,3.896
					c64.187,18.626,163.368,47.413,174.009,111.016c11.757,70.299-86.257,173.499-181.7,178.539
					c-96.325,5.091-147.859-92.022-234.973-62.526c-5.912,2.003-47.732,16.835-67.384,56.573
					c-31.016,62.724,4.115,165.422,95.714,247.718C852.234,1797.123,852.518,1813.677,852.803,1830.237z"/>
				<g>
					
						<linearGradient id="SVGID_00000090278691277205660270000002911233987462523267_" gradientUnits="userSpaceOnUse" x1="5.2565" y1="1453.5087" x2="17.6748" y2="1286.8024" gradientTransform="matrix(-1 0 0 1 1523.1162 0)">
						<stop  offset="0" style="stop-color:#444B8C"/>
						<stop  offset="0.9964" style="stop-color:#26264F"/>
					</linearGradient>
					<path style="fill:url(#SVGID_00000090278691277205660270000002911233987462523267_);" d="M1536.241,1362.363
						c19.418,5.747,23.799,21.784,31.065,19.592c9.315-2.812,14.116-32.792,4.586-57.379
						c-18.399-47.472-89.722-73.537-114.389-53.266c-6.421,5.277-13.27,16.841-15.339,28.962c-0.96,5.621-1.011,13.359-0.112,28.773
						c0.8,13.677,0.565,13.08,0.897,17.12c0.796,9.706,3.267,26.778,12.099,50.443c3.677-4.322,8.551-9.484,14.7-14.57
						c2.365-1.959,11.728-9.536,22.373-14.131C1498.978,1364.946,1517.592,1356.844,1536.241,1362.363z"/>
					
						<linearGradient id="SVGID_00000166677744311403981970000014772239567344763282_" gradientUnits="userSpaceOnUse" x1="1493.5845" y1="1228.9178" x2="1410.1299" y2="2278.0723">
						<stop  offset="0" style="stop-color:#FFC444"/>
						<stop  offset="0.9964" style="stop-color:#F36F56"/>
					</linearGradient>
					<path style="fill:url(#SVGID_00000166677744311403981970000014772239567344763282_);" d="M1441.562,1370.232
						c0,0,1.643,37.828,34.915,54.437c29.791,14.87,69.33-51.767,58.453-77.214c-3.628-8.49-14.866-17.721-26.381-20.582
						c-6.801-1.69-10.138-0.234-21.2-3.225c-10.201-2.76-12.185-5.303-16.125-4.452c-4.928,1.062-11.21,7.069-15.906,30.579
						c-2.443-9.175-7.864-15.325-13.738-15.702c-0.936-0.061-3.648,0.221-5.873,1.75
						C1427.65,1341.361,1429.226,1355.388,1441.562,1370.232z"/>
					
						<linearGradient id="SVGID_00000011719339463896483230000000834027317586642341_" gradientUnits="userSpaceOnUse" x1="33.4807" y1="1468.6206" x2="48.556" y2="1266.245" gradientTransform="matrix(-1 0 0 1 1523.1162 0)">
						<stop  offset="0" style="stop-color:#444B8C"/>
						<stop  offset="0.9964" style="stop-color:#26264F"/>
					</linearGradient>
					<path style="fill:url(#SVGID_00000011719339463896483230000000834027317586642341_);" d="M1458.883,1328.895
						c0,0-2.966,31.027,0,41.015c2.967,9.99,15.235,23.703,34.32,25.701c19.085,1.999,31.646,0,31.646,0
						s-14.257,35.601-20.19,36.963c-5.933,1.363-42.285-0.492-48.904-7.056c-6.62-6.566-14.751-35.252-12.804-47.927
						c1.947-12.673,12.804-41.356,12.804-41.356L1458.883,1328.895z"/>
				</g>
			</g>
		</g>
	</g>
</g>
</svg>
